<svg preserveAspectRatio="none" width="100%" height="100%" overflow="visible" style="display: block;" viewBox="0 0 100.971 101.333" fill="none" xmlns="http://www.w3.org/2000/svg">
<path id="Vector 4935" d="M79.6375 10.6667C79.6375 16.5577 84.4131 21.3333 90.3042 21.3333C96.1952 21.3333 100.971 16.5577 100.971 10.6667C100.971 4.77563 96.1952 0 90.3042 0C84.4131 0 79.6375 4.77563 79.6375 10.6667ZM10.6665 52.3206H8.66648V52.3206L10.6665 52.3206ZM0 90.6667C0 96.5577 4.77563 101.333 10.6667 101.333C16.5577 101.333 21.3333 96.5577 21.3333 90.6667C21.3333 84.7756 16.5577 80 10.6667 80C4.77563 80 0 84.7756 0 90.6667ZM10.6667 90.6667L12.6667 90.6667L12.6666 85.8734L10.6666 85.8734L8.66664 85.8734L8.66667 90.6667L10.6667 90.6667ZM10.6666 76.2869L12.6666 76.2869L12.6665 66.7004L10.6665 66.7004L8.66655 66.7004L8.6666 76.2869L10.6666 76.2869ZM10.6665 57.1138L12.6665 57.1138L12.6665 52.3206L10.6665 52.3206L8.66648 52.3206L8.6665 57.1139L10.6665 57.1138ZM10.6665 52.3206H12.6665L12.6665 46.9071H10.6665H8.66647L8.66648 52.3206H10.6665ZM10.6665 36.0801H12.6665L12.6665 30.6667H10.6665H8.66647L8.66647 36.0801H10.6665ZM10.6665 30.6667H12.6665C12.6665 29.462 12.7845 28.2868 13.0091 27.1516L11.0472 26.7634L9.08518 26.3753C8.81028 27.7648 8.66647 29.2 8.66647 30.6667H10.6665ZM14.0352 19.5544L15.6971 20.667C17.0118 18.7032 18.703 17.012 20.6668 15.6973L19.5542 14.0354L18.4415 12.3734C16.0433 13.979 13.9788 16.0434 12.3732 18.4417L14.0352 19.5544ZM26.7632 11.0473L27.1514 13.0093C28.2866 12.7847 29.4618 12.6667 30.6665 12.6667V10.6667V8.66667C29.1998 8.66667 27.7646 8.81048 26.3751 9.08537L26.7632 11.0473ZM30.6665 10.6667V12.6667H34.3938V10.6667V8.66667H30.6665V10.6667ZM41.8485 10.6667V12.6667H49.3033V10.6667V8.66667H41.8485V10.6667ZM56.758 10.6667V12.6667H64.2127V10.6667V8.66667H56.758V10.6667ZM71.6674 10.6667V12.6667H79.1221V10.6667V8.66667H71.6674V10.6667ZM86.5768 10.6667V12.6667H90.3042V10.6667V8.66667H86.5768V10.6667Z" fill="var(--stroke-0, white)" fill-opacity="0.3"/>
</svg>
