<svg preserveAspectRatio="none" width="100%" height="100%" overflow="visible" style="display: block;" viewBox="0 0 18.1667 16.5" fill="none" xmlns="http://www.w3.org/2000/svg">
<path id="Icon" d="M5.33333 7.41667H2.91667C2.44996 7.41667 2.2166 7.41667 2.03834 7.5075C1.88154 7.58739 1.75406 7.71487 1.67416 7.87168C1.58333 8.04993 1.58333 8.28329 1.58333 8.75V15.75M12.8333 7.41667H15.25C15.7167 7.41667 15.9501 7.41667 16.1283 7.5075C16.2851 7.58739 16.4126 7.71487 16.4925 7.87168C16.5833 8.04993 16.5833 8.28329 16.5833 8.75V15.75M12.8333 15.75V3.41667C12.8333 2.48325 12.8333 2.01654 12.6517 1.66002C12.4919 1.34641 12.2369 1.09145 11.9233 0.931657C11.5668 0.750001 11.1001 0.750001 10.1667 0.750001H8C7.06658 0.750001 6.59987 0.750001 6.24335 0.931657C5.92975 1.09145 5.67478 1.34641 5.51499 1.66002C5.33333 2.01654 5.33333 2.48325 5.33333 3.41667V15.75M17.4167 15.75H0.75M8.25 4.08333H9.91667M8.25 7.41667H9.91667M8.25 10.75H9.91667" stroke="var(--stroke-0, #475367)" stroke-width="1.5" stroke-linecap="round" stroke-linejoin="round"/>
</svg>
