<svg preserveAspectRatio="none" width="100%" height="100%" overflow="visible" style="display: block;" viewBox="0 0 15.1845 13.5028" fill="none" xmlns="http://www.w3.org/2000/svg">
<path id="Icon" d="M7.59226 5.08609V7.75276M7.59226 10.4194H7.59893M6.66914 1.68057L1.18589 11.1517C0.881749 11.677 0.729681 11.9396 0.752156 12.1552C0.77176 12.3433 0.870273 12.5141 1.02318 12.6253C1.19848 12.7528 1.50199 12.7528 2.10901 12.7528H13.0755C13.6825 12.7528 13.986 12.7528 14.1613 12.6253C14.3143 12.5141 14.4128 12.3433 14.4324 12.1552C14.4548 11.9396 14.3028 11.677 13.9986 11.1517L8.51538 1.68057C8.21234 1.15713 8.06082 0.895409 7.86313 0.807507C7.69069 0.730831 7.49384 0.730831 7.3214 0.807507C7.12371 0.895409 6.97219 1.15713 6.66914 1.68057Z" stroke="var(--stroke-0, #F34141)" stroke-width="1.5" stroke-linecap="round" stroke-linejoin="round"/>
</svg>
