<svg preserveAspectRatio="none" width="100%" height="100%" overflow="visible" style="display: block;" viewBox="0 0 15 15.3448" fill="none" xmlns="http://www.w3.org/2000/svg">
<path id="Icon" d="M3.75001 4.875H7.50001M3.75001 7.5H9.75001M5.76282 12H10.65C11.9101 12 12.5402 12 13.0215 11.7548C13.4448 11.5391 13.7891 11.1948 14.0048 10.7715C14.25 10.2902 14.25 9.66012 14.25 8.4V4.35C14.25 3.08988 14.25 2.45982 14.0048 1.97852C13.7891 1.55516 13.4448 1.21095 13.0215 0.995236C12.5402 0.750001 11.9101 0.750001 10.65 0.750001H4.35001C3.08989 0.750001 2.45983 0.750001 1.97853 0.995236C1.55516 1.21095 1.21096 1.55516 0.995242 1.97852C0.750007 2.45982 0.750007 3.08988 0.750007 4.35V13.7516C0.750007 14.1513 0.750007 14.3511 0.831928 14.4537C0.903174 14.543 1.01121 14.5949 1.12541 14.5948C1.25673 14.5946 1.41276 14.4698 1.72482 14.2201L3.51392 12.7889C3.87939 12.4965 4.06213 12.3503 4.26562 12.2463C4.44616 12.1541 4.63833 12.0867 4.83692 12.0459C5.06076 12 5.29478 12 5.76282 12Z" stroke="var(--stroke-0, #344054)" stroke-width="1.5" stroke-linecap="round" stroke-linejoin="round"/>
</svg>
