<svg preserveAspectRatio="none" width="100%" height="100%" overflow="visible" style="display: block;" viewBox="0 0 14.8334 12.8334" fill="none" xmlns="http://www.w3.org/2000/svg">
<path id="Icon" d="M10.0834 1.06184C11.0712 1.55274 11.75 2.57209 11.75 3.75C11.75 4.92791 11.0712 5.94726 10.0834 6.43816M11.4167 9.92759C12.4243 10.3836 13.3317 11.1267 14.0834 12.0833M0.750032 12.0833C2.04769 10.4317 3.80948 9.41667 5.75003 9.41667C7.69058 9.41667 9.45237 10.4317 10.75 12.0833M8.75003 3.75C8.75003 5.40685 7.40689 6.75 5.75003 6.75C4.09318 6.75 2.75003 5.40685 2.75003 3.75C2.75003 2.09315 4.09318 0.75 5.75003 0.75C7.40689 0.75 8.75003 2.09315 8.75003 3.75Z" stroke="var(--stroke-0, #98A2B3)" stroke-width="1.5" stroke-linecap="round" stroke-linejoin="round"/>
</svg>
