<svg preserveAspectRatio="none" width="100%" height="100%" overflow="visible" style="display: block;" viewBox="0 0 18 18" fill="none" xmlns="http://www.w3.org/2000/svg">
<g id="ion:earth-outline" clip-path="url(#clip0_0_369)">
<path id="Vector" d="M16.3125 9C16.3125 4.9616 13.0384 1.6875 9 1.6875C4.9616 1.6875 1.6875 4.9616 1.6875 9C1.6875 13.0384 4.9616 16.3125 9 16.3125C13.0384 16.3125 16.3125 13.0384 16.3125 9Z" stroke="var(--stroke-0, #6941C6)" stroke-width="1.5" stroke-miterlimit="10"/>
<path id="Vector_2" d="M15.6638 6.05133C15.0992 6.05485 15.1548 7.09653 14.4513 6.60504C14.1901 6.42293 14.0294 6.15821 13.7014 6.0777C13.4149 6.00739 13.1213 6.08051 12.8383 6.12938C12.5166 6.18492 12.1352 6.20989 11.8912 6.45352C11.6553 6.68801 11.5305 7.00266 11.2795 7.23856C10.794 7.69559 10.589 8.19446 10.9033 8.84063C11.2057 9.46184 11.8381 9.79899 12.5205 9.75469C13.1909 9.71004 13.8874 9.32121 13.868 10.2954C13.861 10.6399 13.9331 10.879 14.0389 11.1993C14.137 11.4946 14.1303 11.7807 14.1528 12.0855C14.1943 12.6551 14.2991 13.2935 14.5817 13.7966L15.1091 13.0527C15.1741 12.9606 15.3101 12.8316 15.3425 12.7229C15.3998 12.5306 15.2869 12.2002 15.2739 11.9847C15.2609 11.7691 15.2673 11.5508 15.2342 11.3353C15.1878 11.0333 15.0092 10.7503 14.9846 10.4518C14.9392 9.89602 15.0409 9.45235 14.6126 8.98758C14.1992 8.53934 13.5931 8.43176 13.0141 8.52281C12.7223 8.56852 11.5477 8.75625 12.0192 8.08934C12.1123 7.95821 12.2751 7.85063 12.3799 7.72582C12.4709 7.61719 12.55 7.4175 12.6569 7.33278C12.7638 7.24805 13.2546 7.15067 13.3952 7.19391C13.5358 7.23715 13.6824 7.44 13.8044 7.53C14.0298 7.69976 14.2928 7.81264 14.5712 7.85906C15.0514 7.92938 16.0555 7.65024 16.0477 7.0343C16.0463 6.73899 15.7721 6.32766 15.6638 6.05133ZM10.1049 11.1195C9.91753 10.3305 8.84562 10.0669 8.26765 9.63903C7.93542 9.39293 7.63976 9.01289 7.20347 8.98196C7.00237 8.96754 6.83398 9.01114 6.63464 8.95946C6.45183 8.91235 6.30839 8.81391 6.11362 8.83957C5.74976 8.88739 5.52019 9.27621 5.12925 9.22348C4.75835 9.17356 4.3762 8.73973 4.29183 8.38641C4.18355 7.93219 4.54284 7.78489 4.9278 7.74446C5.08847 7.72758 5.26882 7.7093 5.42316 7.76801C5.62636 7.8436 5.72234 8.04258 5.9048 8.14313C6.24687 8.33051 6.31612 8.03098 6.26374 7.72723C6.18534 7.27231 6.09394 7.08668 6.49964 6.77379C6.78089 6.55793 7.02136 6.40184 6.97636 6.01406C6.94964 5.78625 6.82484 5.68324 6.9412 5.45649C7.02944 5.28387 7.27167 5.12813 7.42952 5.02512C7.83698 4.75934 9.17503 4.77903 8.62835 4.03512C8.46769 3.8168 8.17132 3.42656 7.89007 3.37313C7.53851 3.30668 7.38241 3.69903 7.13737 3.87199C6.88425 4.05094 6.39136 4.25414 6.13788 3.97746C5.79687 3.60516 6.36394 3.48281 6.48944 3.22301C6.61495 2.96321 6.1987 2.47207 5.97581 2.34762L4.9278 3.52289C4.8977 3.71972 4.90818 3.92062 4.9586 4.11325C5.00903 4.30587 5.09832 4.48614 5.22101 4.64297C5.42948 4.91121 5.76136 4.99735 5.77648 5.36367C5.79124 5.71524 5.7364 5.89524 5.50648 6.14239C5.40698 6.24785 5.33667 6.39762 5.23542 6.49641C5.11132 6.61699 5.15737 6.58008 4.96366 6.61313C4.59944 6.67465 4.28937 6.76957 3.93745 6.8666C3.35105 7.02867 3.29691 6.07067 3.02972 5.69485L2.15081 6.40465C2.14132 6.52102 2.29495 6.73512 2.33679 6.86168C2.57691 7.58485 3.06136 8.14418 3.37425 8.83606C3.70366 9.56871 4.58819 9.36551 4.97878 10.0075C5.32542 10.577 4.95523 11.298 5.21468 11.8943C5.40312 12.3271 5.84749 12.4216 6.15405 12.738C6.4673 13.0576 6.46062 13.495 6.50843 13.9109C6.56233 14.4 6.64984 14.8849 6.77034 15.3621C6.81288 15.527 6.85191 15.745 6.96476 15.881C7.0421 15.9745 7.30753 16.055 7.2003 16.086C7.35007 16.1106 7.61691 16.2505 7.74171 16.1479C7.90624 16.0129 7.8623 15.5973 7.89077 15.4096C7.9762 14.8506 8.25605 14.3039 8.63362 13.8855C9.00663 13.4728 9.5178 13.1933 9.8328 12.7254C10.1397 12.2691 10.2322 11.6535 10.1049 11.1195ZM8.93105 12.0448C8.72011 12.4213 8.25042 12.6734 7.94843 12.9725C7.86651 13.0538 7.69214 13.335 7.58948 13.2742C7.51601 13.2306 7.49105 12.8657 7.46398 12.782C7.32432 12.3607 7.05772 11.9929 6.70073 11.7291C6.59069 11.6457 6.31788 11.5375 6.25495 11.4232C6.18464 11.2991 6.24792 11.0063 6.25038 10.8713C6.25425 10.6744 6.1646 10.3471 6.21312 10.1681C6.26937 9.96176 6.16109 10.0862 6.34566 10.0454C6.44304 10.0236 6.84523 10.0943 6.96651 10.1196C7.15917 10.1597 7.26534 10.2796 7.41722 10.4009C7.81659 10.7211 8.2564 10.969 8.70394 11.2144C9.05058 11.4063 9.15253 11.6493 8.93105 12.0448ZM6.48417 2.35817C6.65081 2.52094 6.80761 2.7136 7.05616 2.72977C7.29136 2.74559 7.51319 2.61832 7.71851 2.77828C7.94632 2.95406 8.1105 3.1766 8.41284 3.23145C8.70534 3.28453 9.01507 3.11367 9.08749 2.81449C9.1578 2.52938 9.00628 2.2193 8.99714 1.93313C8.99714 1.8934 9.01859 1.71692 8.99116 1.68703C8.97077 1.66453 8.80062 1.68985 8.7746 1.69055C8.58405 1.69617 8.39398 1.7093 8.20437 1.72992C7.51313 1.80474 6.83618 1.97818 6.19413 2.24496C6.27956 2.30403 6.38679 2.32758 6.48417 2.35817ZM12.5289 4.33324C12.8274 4.33324 13.1305 4.19965 13.0341 3.85442C12.9533 3.56508 12.8155 3.25114 12.4801 3.40723C12.2667 3.50637 11.9643 3.75879 11.9394 4.0091C11.9109 4.29317 12.33 4.33324 12.5289 4.33324ZM12.2906 5.84391C12.5954 6.02637 13.0475 5.94059 13.2774 5.68008C13.4571 5.47617 13.5629 5.12215 13.886 5.1225C14.0282 5.12221 14.1649 5.1779 14.2664 5.27754C14.4 5.41571 14.3736 5.54543 14.4021 5.7184C14.4657 6.10688 14.8823 5.74055 14.9909 5.59008C15.0612 5.49199 15.1565 5.34645 15.1245 5.21883C15.095 5.09965 14.9558 4.97274 14.8939 4.8634C14.7132 4.54699 14.5645 4.17891 14.2938 3.92332C14.0333 3.67723 13.713 3.70571 13.4659 3.96129C13.2634 4.17223 13.0282 4.33922 12.8896 4.59586C12.7919 4.77621 12.6819 4.86235 12.4839 4.9091C12.375 4.93477 12.2505 4.94426 12.1591 5.01739C11.9046 5.21778 12.0494 5.69907 12.2906 5.84391Z" fill="var(--fill-0, #6941C6)"/>
</g>
<defs>
<clipPath id="clip0_0_369">
<rect width="18" height="18" fill="white"/>
</clipPath>
</defs>
</svg>
