<svg preserveAspectRatio="none" width="100%" height="100%" overflow="visible" style="display: block;" viewBox="0 0 13.5001 12.9143" fill="none" xmlns="http://www.w3.org/2000/svg">
<path id="Icon" d="M6.75007 12.1642H12.7501M0.750086 12.1642H1.86645C2.19257 12.1642 2.35563 12.1642 2.50908 12.1274C2.64513 12.0947 2.77519 12.0408 2.89448 11.9677C3.02904 11.8853 3.14434 11.77 3.37494 11.5394L11.7501 3.16421C12.3024 2.61193 12.3024 1.7165 11.7501 1.16421C11.1978 0.611929 10.3024 0.611929 9.7501 1.16421L1.37493 9.53937C1.14432 9.76998 1.02902 9.88528 0.946567 10.0198C0.873461 10.1391 0.819589 10.2692 0.786927 10.4052C0.750086 10.5587 0.750086 10.7217 0.750086 11.0479V12.1642Z" stroke="var(--stroke-0, #475367)" stroke-width="1.5" stroke-linecap="round" stroke-linejoin="round"/>
</svg>
