<svg preserveAspectRatio="none" width="100%" height="100%" overflow="visible" style="display: block;" viewBox="0 0 19.5 19.5" fill="none" xmlns="http://www.w3.org/2000/svg">
<path id="Icon" d="M0.75 0.75V10.95C0.75 12.6302 0.75 13.4702 1.07698 14.112C1.3646 14.6765 1.82354 15.1354 2.38803 15.423C3.02976 15.75 3.86984 15.75 5.55 15.75H12.75M12.75 15.75C12.75 17.4069 14.0931 18.75 15.75 18.75C17.4069 18.75 18.75 17.4069 18.75 15.75C18.75 14.0931 17.4069 12.75 15.75 12.75C14.0931 12.75 12.75 14.0931 12.75 15.75ZM0.75 5.75L12.75 5.75M12.75 5.75C12.75 7.40686 14.0931 8.75 15.75 8.75C17.4069 8.75 18.75 7.40685 18.75 5.75C18.75 4.09315 17.4069 2.75 15.75 2.75C14.0931 2.75 12.75 4.09315 12.75 5.75Z" stroke="var(--stroke-0, #667185)" stroke-width="1.5" stroke-linecap="round" stroke-linejoin="round"/>
</svg>
