<svg preserveAspectRatio="none" width="100%" height="100%" overflow="visible" style="display: block;" viewBox="0 0 15 15" fill="none" xmlns="http://www.w3.org/2000/svg">
<path id="Icon" d="M11.25 6.75V4.5C11.25 2.42893 9.57107 0.75 7.5 0.75C5.42893 0.75 3.75 2.42893 3.75 4.5V6.75M4.35 14.25H10.65C11.9101 14.25 12.5402 14.25 13.0215 14.0048C13.4448 13.789 13.7891 13.4448 14.0048 13.0215C14.25 12.5402 14.25 11.9101 14.25 10.65V10.35C14.25 9.08988 14.25 8.45982 14.0048 7.97852C13.7891 7.55516 13.4448 7.21095 13.0215 6.99524C12.5402 6.75 11.9101 6.75 10.65 6.75H4.35C3.08988 6.75 2.45982 6.75 1.97852 6.99524C1.55516 7.21095 1.21095 7.55516 0.995236 7.97852C0.750001 8.45982 0.750001 9.08988 0.750001 10.35V10.65C0.750001 11.9101 0.750001 12.5402 0.995236 13.0215C1.21095 13.4448 1.55516 13.789 1.97852 14.0048C2.45982 14.25 3.08988 14.25 4.35 14.25Z" stroke="var(--stroke-0, #667185)" stroke-width="1.5" stroke-linecap="round" stroke-linejoin="round"/>
</svg>
