<svg preserveAspectRatio="none" width="100%" height="100%" overflow="visible" style="display: block;" viewBox="0 0 160.395 118.026" fill="none" xmlns="http://www.w3.org/2000/svg">
<g id="203892945_8892d3e6-f7a8-4949-9101-11c74403ebea 2" clip-path="url(#clip0_0_386)">
<path id="Vector" d="M160.771 -21.1094H-0.173828V139.836H160.771V-21.1094Z" fill="var(--fill-0, white)"/>
<path id="Vector_2" fill-rule="evenodd" clip-rule="evenodd" d="M95.2071 0.138672C107.656 0.138672 118.927 5.20639 127.075 13.3544C135.223 21.5017 140.29 32.7791 140.29 45.2216C140.29 57.6769 135.223 68.9539 127.075 77.1138C118.927 85.2741 107.649 90.3173 95.2071 90.3173C82.7519 90.3173 71.4751 85.2738 63.3151 77.1138C55.1549 68.9535 50.1113 57.6769 50.1113 45.2216C50.1113 32.7793 55.1546 21.5018 63.3151 13.3544C71.4748 5.20639 82.7583 0.138672 95.2071 0.138672Z" fill="var(--fill-0, #F0ECF9)"/>
<path id="Vector_3" fill-rule="evenodd" clip-rule="evenodd" d="M95.2085 12.2129C104.32 12.2129 112.571 15.9311 118.535 21.8946C124.499 27.8582 128.217 36.1168 128.217 45.2213C128.217 54.3389 124.499 62.5972 118.535 68.5729C112.572 74.5487 104.314 78.2426 95.2085 78.2426C86.0912 78.2426 77.8325 74.5487 71.8567 68.5729C65.8809 62.5972 62.1875 54.3387 62.1875 45.2213C62.1875 36.1166 65.8809 27.8582 71.8567 21.8946C77.8325 15.9311 86.0973 12.2129 95.2085 12.2129Z" fill="var(--fill-0, white)"/>
<path id="Vector_4" fill-rule="evenodd" clip-rule="evenodd" d="M95.2084 16.25C111.216 16.25 124.18 29.2205 124.18 45.2214C124.18 61.2352 111.21 74.2057 95.2084 74.2057C79.1946 74.2057 66.2246 61.2352 66.2246 45.2214C66.2246 29.2205 79.2011 16.25 95.2084 16.25Z" fill="var(--fill-0, #D8B4FE)"/>
<path id="Vector_5" fill-rule="evenodd" clip-rule="evenodd" d="M95.2076 27.9922C104.724 27.9922 112.436 35.7107 112.436 45.2203C112.436 54.7427 104.718 62.4612 95.2076 62.4612C85.6853 62.4612 77.9668 54.7427 77.9668 45.2203C77.9668 35.7106 85.6916 27.9922 95.2076 27.9922Z" fill="var(--fill-0, white)"/>
<path id="Vector_6" fill-rule="evenodd" clip-rule="evenodd" d="M95.2074 31.8574C102.588 31.8574 108.57 37.8457 108.57 45.2202C108.57 52.6076 102.582 58.5959 95.2074 58.5959C87.8203 58.5959 81.832 52.6076 81.832 45.2202C81.832 37.8457 87.8264 31.8574 95.2074 31.8574Z" fill="var(--fill-0, #6941C6)"/>
<path id="Vector_7" fill-rule="evenodd" clip-rule="evenodd" d="M37.4374 96.7031H64.4804C65.2886 96.7031 65.949 97.3631 65.949 98.1715V117.617C65.949 117.675 65.9016 117.723 65.8429 117.723H36.0752C36.0163 117.723 35.9688 117.675 35.9688 117.617V98.1716C35.9688 97.3633 36.629 96.7031 37.4374 96.7031Z" fill="var(--fill-0, #6941C6)"/>
<path id="Vector_8" fill-rule="evenodd" clip-rule="evenodd" d="M52.9007 83.1699H78.6924C79.8443 83.1699 80.7868 84.1121 80.7868 85.264V117.573C80.7868 117.656 80.7184 117.724 80.635 117.724H50.9584C50.8751 117.724 50.8066 117.656 50.8066 117.573V85.264C50.8068 84.1121 51.7493 83.1699 52.9007 83.1699Z" fill="var(--fill-0, #6941C6)"/>
<path id="Vector_9" fill-rule="evenodd" clip-rule="evenodd" d="M72.0296 73.4414H97.8214C98.9734 73.4414 99.9155 74.3835 99.9155 75.5355V117.489C99.9155 117.572 99.8475 117.639 99.7642 117.639H70.0868C70.0037 117.639 69.9355 117.571 69.9355 117.489V75.5353C69.9355 74.3834 70.8775 73.4414 72.0296 73.4414Z" fill="var(--fill-0, #6941C6)"/>
<path id="Vector_10" fill-rule="evenodd" clip-rule="evenodd" d="M92.18 61.877H117.972C119.124 61.877 120.066 62.8188 120.066 63.9712V117.572C120.066 117.655 119.998 117.723 119.915 117.723H90.2372C90.1541 117.723 90.0859 117.655 90.0859 117.572V63.971C90.0859 62.8188 91.0281 61.877 92.18 61.877Z" fill="var(--fill-0, #A12DE5)"/>
<path id="Vector_11" fill-rule="evenodd" clip-rule="evenodd" d="M45.901 75.0619L43.3929 74.127L41.2685 81.7771L37.6132 85.6874L39.2707 87.3871L44.2436 83.3496L47.0061 75.3597L45.901 75.0619Z" fill="var(--fill-0, #4A1877)"/>
<path id="Vector_12" fill-rule="evenodd" clip-rule="evenodd" d="M43.3933 74.1262C43.3933 74.1262 42.1186 78.0364 47.3882 77.8665C52.6584 77.6965 53.9334 77.1864 53.9334 77.1864L60.0537 79.9914L61.5623 78.0364L54.2733 73.8711L43.3933 74.1262Z" fill="var(--fill-0, #5E17A9)"/>
<path id="Vector_13" fill-rule="evenodd" clip-rule="evenodd" d="M42.2117 67.6422L43.3922 74.1272L48.8321 73.9998L49.1326 67.3488L51.3532 68.8255L52.8788 65.8381C48.9193 64.2507 44.8763 63.188 39.1028 63.9914L38.6777 66.5839L42.2117 67.6422Z" fill="var(--fill-0, #FACC15)"/>
<path id="Vector_14" fill-rule="evenodd" clip-rule="evenodd" d="M37.0035 86.4316L35.4844 87.6321L38.6828 91.9146C40.4232 90.7619 38.0365 87.5741 37.0035 86.4316Z" fill="var(--fill-0, #01052D)"/>
<path id="Vector_15" fill-rule="evenodd" clip-rule="evenodd" d="M61.2227 80.5112L62.7757 81.6686L66.0841 77.4702C64.5204 76.0878 62.0587 79.2181 61.2227 80.5112Z" fill="var(--fill-0, #01052D)"/>
<path id="Vector_16" fill-rule="evenodd" clip-rule="evenodd" d="M47.0329 57.7974L47.5336 58.8228L48.8453 59.8958L48.0583 60.2535C48.5289 60.9165 48.9863 61.4985 48.7521 61.8882C48.1567 62.8779 43.8123 63.19 43.3091 59.5969C42.7593 55.6509 46.6387 56.758 47.0329 57.7974Z" fill="var(--fill-0, #FFCCBC)"/>
<path id="Vector_17" fill-rule="evenodd" clip-rule="evenodd" d="M45.353 57.5943L47.033 57.7965C47.033 57.7965 50.1934 56.0203 47.6185 54.0176C47.6185 54.0176 47.5942 55.4721 45.2575 55.4247C42.9209 55.3768 42.4442 56.6165 42.4442 56.6165C42.4442 56.6165 41.3474 56.5215 41.6336 57.9756C41.9196 59.4303 42.1074 62.5078 44.255 61.5771L45.0911 60.8369C45.0911 60.8369 43.3026 60.1692 43.9463 58.9771C44.59 57.7848 45.6392 59.8115 45.6392 59.8115L45.353 57.5943Z" fill="var(--fill-0, #01052D)"/>
<path id="Vector_18" fill-rule="evenodd" clip-rule="evenodd" d="M78.0457 73.4404C75.79 72.0665 73.7127 70.4298 71.8554 68.5725C65.8792 62.5968 62.1858 54.3384 62.1858 45.2209C62.1858 43.169 62.3731 41.1601 62.7321 39.2109C62.0428 41.8666 61.6758 44.6516 61.6758 47.521C61.6758 56.639 65.3697 64.897 71.3455 70.8727C72.2561 71.7833 73.2198 72.6409 74.231 73.4404H78.0457Z" fill="var(--fill-0, #29084D)"/>
<path id="Vector_19" d="M61.2688 50.8555L19.3555 64.5371L19.5801 65.2252L61.4934 51.5436L61.2688 50.8555Z" fill="var(--fill-0, #01052D)"/>
<path id="Vector_20" fill-rule="evenodd" clip-rule="evenodd" d="M65.7703 49.7719L63.8262 51.2433L61.882 52.7142L61.3884 51.202L60.8945 49.6895L63.3327 49.7305L65.7703 49.7719Z" fill="var(--fill-0, #01052D)"/>
<path id="Vector_21" fill-rule="evenodd" clip-rule="evenodd" d="M27.3733 62.6816L19.5832 65.2236L19.416 67.4785C19.416 67.4785 26.8749 65.268 27.3733 62.6816Z" fill="var(--fill-0, #15B0F8)"/>
<path id="Vector_22" fill-rule="evenodd" clip-rule="evenodd" d="M27.1475 61.9944L19.3579 64.5367L17.8926 62.8145C17.8926 62.8145 25.2195 60.1999 27.1475 61.9944Z" fill="var(--fill-0, #15B0F8)"/>
<path id="Vector_23" fill-rule="evenodd" clip-rule="evenodd" d="M38.257 59.3029L36.9938 63.6521C38.1198 63.7156 39.1034 63.992 39.1034 63.992L38.6783 66.5845C35.8878 65.7485 34.8047 64.3957 34.8047 64.3957C35.5274 61.9094 36.747 59.9995 36.747 59.9995C36.747 59.9995 36.2049 59.4655 36.2896 58.3601C36.2896 58.3601 37.0936 57.4383 38.6573 58.2392L38.257 59.3029Z" fill="var(--fill-0, #FFCCBC)"/>
<path id="Vector_24" fill-rule="evenodd" clip-rule="evenodd" d="M52.8801 65.838L55.3324 67.0074C55.3324 67.0074 57.8827 65.2225 59.4551 62.6299C59.4551 62.6299 58.903 61.7799 59.647 60.9297L61.4107 61.2699C61.4107 61.2699 61.3046 62.1835 60.1356 61.865C60.1356 61.865 60.4549 63.0971 61.9422 62.5659C61.9422 62.5659 61.4324 63.4373 60.561 63.3735C60.561 63.3735 58.6065 68.8988 56.2687 69.4089C56.2687 69.4089 54.3301 69.51 51.7325 68.0849L52.8801 65.838Z" fill="var(--fill-0, #FFCCBC)"/>
<path id="Vector_25" fill-rule="evenodd" clip-rule="evenodd" d="M45.6319 62.3691V62.3695L44.916 63.8002V63.8007C45.7562 63.8717 46.5607 63.9865 47.3389 64.1372V64.1367L47.5848 62.4798L47.5845 62.4793C47.0094 62.5854 46.3045 62.5717 45.6319 62.3691Z" fill="var(--fill-0, #FFCCBC)"/>
<path id="Vector_26" fill-rule="evenodd" clip-rule="evenodd" d="M61.9421 62.5669C63.7016 60.2389 60.2191 60.442 60.2191 60.442L59.8926 60.978L61.4108 61.2708C61.4108 61.2708 61.3046 62.1843 60.1357 61.8658C60.1357 61.8658 60.455 63.0979 61.9421 62.5669Z" fill="var(--fill-0, #FFCCBC)"/>
<path id="Vector_27" fill-rule="evenodd" clip-rule="evenodd" d="M61.4099 61.2695C61.4099 61.2695 61.3037 62.183 60.1348 61.8645C60.1348 61.8645 60.4541 63.0967 61.9414 62.5655C60.7301 62.7232 60.6827 62.1473 60.6827 62.1473C61.506 62.0572 61.4099 61.2695 61.4099 61.2695Z" fill="var(--fill-0, #FFAC9C)"/>
<path id="Vector_28" fill-rule="evenodd" clip-rule="evenodd" d="M39.0944 87.2074L37.6124 85.6875L37.002 86.4327C37.314 86.7775 37.7494 87.3091 38.1569 87.9145L39.0944 87.2074Z" fill="var(--fill-0, #FFCCBC)"/>
<path id="Vector_29" fill-rule="evenodd" clip-rule="evenodd" d="M60.375 79.5746L61.4621 80.1556C61.7747 79.7088 62.2043 79.1542 62.6913 78.6416L61.5617 78.0371L60.375 79.5746Z" fill="var(--fill-0, #FFCCBC)"/>
<path id="Vector_30" fill-rule="evenodd" clip-rule="evenodd" d="M47.5838 62.4798C47.0082 62.5859 46.3034 62.5717 45.6309 62.3691C46.1627 62.854 47.2923 62.7171 47.3378 64.1367L47.5838 62.4798Z" fill="var(--fill-0, #FFAC9C)"/>
<path id="Vector_31" fill-rule="evenodd" clip-rule="evenodd" d="M50.8067 117.572V96.7031H47.3125V117.571C47.3125 117.654 47.3805 117.722 47.4638 117.722H50.9505C50.8709 117.719 50.8067 117.652 50.8067 117.572Z" fill="var(--fill-0, #4B2E8D)"/>
<path id="Vector_32" fill-rule="evenodd" clip-rule="evenodd" d="M66.4414 83.1699V117.483C66.4414 117.567 66.5097 117.635 66.593 117.635H70.0508C69.985 117.618 69.936 117.559 69.936 117.488V83.1699H66.4414Z" fill="var(--fill-0, #4B2E8D)"/>
<path id="Vector_33" fill-rule="evenodd" clip-rule="evenodd" d="M86.5918 77.1083V89.4962V117.573C86.5918 117.595 86.5963 117.616 86.6051 117.635H90.0994C90.0907 117.616 90.086 117.595 90.086 117.573V90.0301V77.8485V73.7556V73.4414H88.563H86.5918V77.1083Z" fill="var(--fill-0, #4B2E8D)"/>
<path id="Vector_34" fill-rule="evenodd" clip-rule="evenodd" d="M77.457 47.5221C77.457 55.4472 82.8037 62.1228 90.0861 64.1392V63.9727C90.0861 63.1029 90.6234 62.3524 91.3825 62.0371C83.7013 60.2971 77.9668 53.4293 77.9668 45.2219C77.9668 44.3463 78.0323 43.4855 78.159 42.6445C77.7017 44.1916 77.457 45.8283 77.457 47.5221Z" fill="var(--fill-0, #29084D)"/>
<path id="Vector_35" fill-rule="evenodd" clip-rule="evenodd" d="M111.733 50.1094C110.042 55.8403 105.455 60.3283 99.6699 61.8776H104.239C108.191 59.2411 110.995 55.0137 111.733 50.1094Z" fill="var(--fill-0, #29084D)"/>
<path id="Vector_36" fill-rule="evenodd" clip-rule="evenodd" d="M127.16 53.5156C125.851 58.5549 123.382 63.1282 120.064 66.932V68.6337C123.61 64.3691 126.114 59.1959 127.16 53.5156Z" fill="var(--fill-0, #29084D)"/>
<path id="Vector_37" fill-rule="evenodd" clip-rule="evenodd" d="M94.698 18.5501C110.705 18.5501 123.669 31.5206 123.669 47.5213C123.669 49.2791 123.513 50.9998 123.214 52.6707C123.844 50.2939 124.179 47.7967 124.179 45.2213C124.179 29.2199 111.215 16.2499 95.2075 16.2499C80.9543 16.2499 69.1039 26.5333 66.6779 40.0833C69.9626 27.6866 81.2627 18.5501 94.698 18.5501Z" fill="var(--fill-0, #29084D)"/>
<path id="Vector_38" fill-rule="evenodd" clip-rule="evenodd" d="M108.57 45.2205C108.57 37.846 102.588 31.8574 95.207 31.8574C88.4145 31.8574 82.7958 36.93 81.9434 43.4866C83.6577 38.0808 88.7238 34.1576 94.6975 34.1576C102.078 34.1576 108.061 40.1464 108.061 47.5207C108.061 48.1124 108.022 48.6948 107.948 49.2657C108.352 47.9894 108.57 46.6305 108.57 45.2205Z" fill="var(--fill-0, #29084D)"/>
</g>
<defs>
<clipPath id="clip0_0_386">
<rect width="160.395" height="118.026" fill="white"/>
</clipPath>
</defs>
</svg>
