<svg preserveAspectRatio="none" width="100%" height="100%" overflow="visible" style="display: block;" viewBox="0 0 12.2503 12.8322" fill="none" xmlns="http://www.w3.org/2000/svg">
<path id="Vector" d="M2.74955 4.15863L2.60605 4.4888C2.58362 4.54256 2.54579 4.58849 2.49731 4.62079C2.44884 4.65309 2.39188 4.67033 2.33363 4.67033C2.27538 4.67033 2.21843 4.65309 2.16995 4.62079C2.12147 4.58849 2.08364 4.54256 2.06121 4.4888L1.91771 4.15863C1.66541 3.57455 1.20335 3.10625 0.622714 2.84613L0.179964 2.64838C0.12625 2.62367 0.0807474 2.58408 0.0488504 2.5343C0.0169534 2.48451 0 2.42663 0 2.36751C0 2.30838 0.0169534 2.2505 0.0488504 2.20071C0.0807474 2.15093 0.12625 2.11134 0.179964 2.08663L0.598214 1.90055C1.19345 1.63302 1.66341 1.14739 1.9113 0.543714L2.05946 0.187297C2.08114 0.132087 2.11895 0.0846878 2.16796 0.0512786C2.21696 0.0178693 2.2749 0 2.33421 0C2.39353 0 2.45146 0.0178693 2.50047 0.0512786C2.54948 0.0846878 2.58729 0.132087 2.60896 0.187297L2.75655 0.543131C3.00417 1.14693 3.47392 1.63276 4.06905 1.90055L4.48788 2.08721C4.54143 2.11199 4.58677 2.15158 4.61855 2.2013C4.65033 2.25102 4.66721 2.30879 4.66721 2.3678C4.66721 2.4268 4.65033 2.48458 4.61855 2.5343C4.58677 2.58401 4.54143 2.6236 4.48788 2.64838L4.04455 2.84555C3.46402 3.10593 3.00217 3.57444 2.75013 4.15863M3.69571 9.22605C3.79838 8.88655 3.9133 8.54996 4.04863 8.18655C5.24796 4.96246 7.2453 2.96513 10.5085 2.45938C10.2092 3.12613 9.9263 3.58988 9.67605 3.84013L9.09213 4.42463L8.2673 5.25063L9.11663 6.0988C8.45747 7.31505 7.15488 8.28338 5.68896 8.46655C4.92071 8.5628 4.25455 8.82063 3.69513 9.22663M10.5003 5.83221L9.91696 5.24888L10.502 4.6638C11.085 4.08008 11.6677 2.91399 12.2503 1.16555C3.68171 1.16555 2.38555 8.9968 1.78763 12.6082L1.7503 12.8322H2.9158C3.3043 10.8878 4.27691 9.81833 5.83363 9.62388C8.16696 9.33221 9.91696 7.58221 10.5003 5.83221Z" fill="url(#paint0_linear_0_430)"/>
<defs>
<linearGradient id="paint0_linear_0_430" x1="0" y1="6.41611" x2="12.2503" y2="6.41611" gradientUnits="userSpaceOnUse">
<stop stop-color="#4C2C97"/>
<stop offset="0.191822" stop-color="#6941C6"/>
<stop offset="0.520202" stop-color="#5A57D6"/>
<stop offset="0.992958" stop-color="#3B82F6"/>
</linearGradient>
</defs>
</svg>
