<svg preserveAspectRatio="none" width="100%" height="100%" overflow="visible" style="display: block;" viewBox="0 0 10.5 11.5" fill="none" xmlns="http://www.w3.org/2000/svg">
<path id="Icon" d="M9.75 4.75H0.750001M7.25 0.75V2.75M3.25 0.75V2.75M3.15 10.75H7.35C8.19008 10.75 8.61012 10.75 8.93099 10.5865C9.21323 10.4427 9.4427 10.2132 9.58651 9.93099C9.75 9.61012 9.75 9.19008 9.75 8.35V4.15C9.75 3.30992 9.75 2.88988 9.58651 2.56901C9.4427 2.28677 9.21323 2.0573 8.93099 1.91349C8.61012 1.75 8.19008 1.75 7.35 1.75H3.15C2.30992 1.75 1.88988 1.75 1.56902 1.91349C1.28677 2.0573 1.0573 2.28677 0.913492 2.56901C0.750001 2.88988 0.750001 3.30992 0.750001 4.15V8.35C0.750001 9.19008 0.750001 9.61012 0.913492 9.93099C1.0573 10.2132 1.28677 10.4427 1.56902 10.5865C1.88988 10.75 2.30992 10.75 3.15 10.75Z" stroke="var(--stroke-0, #667185)" stroke-width="1.5" stroke-linecap="round" stroke-linejoin="round"/>
</svg>
