<svg preserveAspectRatio="none" width="100%" height="100%" overflow="visible" style="display: block;" viewBox="0 0 6.33245 11.6658" fill="none" xmlns="http://www.w3.org/2000/svg">
<path id="Vector" d="M3.51956 0.146227C3.42581 0.0525931 3.29873 0 3.16623 0C3.03373 0 2.90664 0.0525931 2.81289 0.146227L0.146227 2.81289C0.0525929 2.90664 0 3.03373 0 3.16623C0 3.29873 0.0525929 3.42581 0.146227 3.51956H6.18623C6.27986 3.42581 6.33245 3.29873 6.33245 3.16623C6.33245 3.03373 6.27986 2.90664 6.18623 2.81289L3.51956 0.146227ZM6.18623 8.85289C6.27986 8.75914 6.33245 8.63206 6.33245 8.49956C6.33245 8.36706 6.27986 8.23998 6.18623 8.14623H0.146227C0.0525929 8.23998 0 8.36706 0 8.49956C0 8.63206 0.0525929 8.75914 0.146227 8.85289L2.81289 11.5196C2.90664 11.6132 3.03373 11.6658 3.16623 11.6658C3.29873 11.6658 3.42581 11.6132 3.51956 11.5196L6.18623 8.85289Z" fill="var(--fill-0, #475367)"/>
</svg>
