<svg preserveAspectRatio="none" width="100%" height="100%" overflow="visible" style="display: block;" viewBox="0 0 13 13" fill="none" xmlns="http://www.w3.org/2000/svg">
<path id="Vector" d="M5.16667 3.16667L4.82267 4.096C4.372 5.31467 4.14667 5.924 3.702 6.36867C3.25733 6.81333 2.648 7.03867 1.42933 7.48933L0.5 7.83333L1.42933 8.17733C2.648 8.628 3.25733 8.854 3.702 9.298C4.14667 9.742 4.372 10.352 4.82267 11.5707L5.16667 12.5L5.51067 11.5707C5.96133 10.352 6.18733 9.74267 6.63133 9.298C7.07533 8.85333 7.68533 8.628 8.904 8.17733L9.83333 7.83333L8.904 7.48933C7.68533 7.03867 7.076 6.81333 6.63133 6.36867C6.18667 5.924 5.96133 5.31467 5.51067 4.096L5.16667 3.16667ZM10.5 0.5L10.3527 0.898C10.1593 1.42067 10.0627 1.682 9.87267 1.872C9.682 2.06267 9.42067 2.15933 8.898 2.352L8.5 2.5L8.89867 2.64733C9.42067 2.84067 9.682 2.93733 9.872 3.12733C10.0627 3.318 10.1593 3.57933 10.352 4.102L10.5 4.5L10.6473 4.102C10.8407 3.57933 10.9373 3.318 11.1273 3.128C11.318 2.93733 11.5793 2.84067 12.102 2.648L12.5 2.5L12.1013 2.35267C11.5793 2.15933 11.318 2.06267 11.128 1.87267C10.9373 1.682 10.8407 1.42067 10.648 0.898L10.5 0.5Z" stroke="var(--stroke-0, #6941C6)" stroke-linecap="round" stroke-linejoin="round"/>
</svg>
