<svg preserveAspectRatio="none" width="100%" height="100%" overflow="visible" style="display: block;" viewBox="0 0 16.065 18.1667" fill="none" xmlns="http://www.w3.org/2000/svg">
<path id="Icon" d="M5.82765 16.5833C6.41526 17.102 7.18713 17.4167 8.0325 17.4167C8.87787 17.4167 9.64974 17.102 10.2374 16.5833M13.0325 5.75C13.0325 4.42392 12.5057 3.15215 11.568 2.21447C10.6304 1.27678 9.35858 0.75 8.0325 0.75C6.70642 0.75 5.43465 1.27678 4.49697 2.21447C3.55928 3.15215 3.0325 4.42392 3.0325 5.75C3.0325 8.32515 2.38289 10.0883 1.65722 11.2545C1.04511 12.2382 0.739048 12.7301 0.75027 12.8673C0.762696 13.0192 0.794883 13.0772 0.917312 13.168C1.02788 13.25 1.52632 13.25 2.52321 13.25H13.5418C14.5387 13.25 15.0371 13.25 15.1477 13.168C15.2701 13.0772 15.3023 13.0192 15.3147 12.8673C15.326 12.7301 15.0199 12.2382 14.4078 11.2545C13.6821 10.0883 13.0325 8.32515 13.0325 5.75Z" stroke="var(--stroke-0, #344054)" stroke-width="1.5" stroke-linecap="round" stroke-linejoin="round"/>
</svg>
