<svg preserveAspectRatio="none" width="100%" height="100%" overflow="visible" style="display: block;" viewBox="0 0 18.1667 16.5" fill="none" xmlns="http://www.w3.org/2000/svg">
<path id="Icon" d="M9.08333 6.08333C9.08333 4.21649 9.08333 3.28307 9.44665 2.57003C9.76622 1.94283 10.2762 1.43289 10.9034 1.11331C11.6164 0.750001 12.5498 0.750001 14.4167 0.750001H14.75C15.6834 0.750001 16.1501 0.750001 16.5067 0.931657C16.8203 1.09145 17.0752 1.34641 17.235 1.66002C17.4167 2.01654 17.4167 2.48325 17.4167 3.41667V10.5833C17.4167 11.5168 17.4167 11.9835 17.235 12.34C17.0752 12.6536 16.8203 12.9086 16.5067 13.0683C16.1501 13.25 15.6834 13.25 14.75 13.25H13.6043C12.5607 13.25 12.039 13.25 11.5653 13.3938C11.146 13.5212 10.756 13.7299 10.4174 14.0082C10.035 14.3225 9.74558 14.7566 9.16671 15.6249L9.08333 15.75L8.99996 15.6249C8.42109 14.7566 8.13165 14.3225 7.74925 14.0082C7.41072 13.7299 7.02064 13.5212 6.60134 13.3938C6.12771 13.25 5.60592 13.25 4.56235 13.25H3.41667C2.48325 13.25 2.01654 13.25 1.66002 13.0683C1.34641 12.9086 1.09145 12.6536 0.931657 12.34C0.750001 11.9835 0.750001 11.5168 0.750001 10.5833V3.41667C0.750001 2.48325 0.750001 2.01654 0.931657 1.66002C1.09145 1.34641 1.34641 1.09145 1.66002 0.931657C2.01654 0.750001 2.48325 0.750001 3.41667 0.750001H3.75C5.61684 0.750001 6.55026 0.750001 7.2633 1.11331C7.89051 1.43289 8.40044 1.94283 8.72002 2.57003C9.08333 3.28307 9.08333 4.21649 9.08333 6.08333ZM9.08333 15.75V6.08333" stroke="var(--stroke-0, #475367)" stroke-width="1.5" stroke-linecap="round" stroke-linejoin="round"/>
</svg>
