<svg preserveAspectRatio="none" width="100%" height="100%" overflow="visible" style="display: block;" viewBox="0 0 16.5001 15.5625" fill="none" xmlns="http://www.w3.org/2000/svg">
<path id="Icon" d="M6.00005 14.8125V9.2625C6.00005 8.84246 6.00005 8.63244 6.08179 8.47201C6.1537 8.33089 6.26843 8.21615 6.40955 8.14425C6.56999 8.0625 6.78001 8.0625 7.20005 8.0625H9.30005C9.72009 8.0625 9.93011 8.0625 10.0905 8.14425C10.2317 8.21615 10.3464 8.33089 10.4183 8.47201C10.5 8.63244 10.5 8.84246 10.5 9.2625V14.8125M0.750044 6.1875L7.53005 1.1025C7.78824 0.908854 7.91734 0.812032 8.05912 0.774709C8.18427 0.741764 8.31582 0.741764 8.44097 0.774709C8.58276 0.812032 8.71185 0.908855 8.97005 1.1025L15.75 6.1875M2.25005 5.0625V12.4125C2.25005 13.2526 2.25005 13.6726 2.41354 13.9935C2.55735 14.2757 2.78682 14.5052 3.06906 14.649C3.38993 14.8125 3.80997 14.8125 4.65005 14.8125H11.85C12.6901 14.8125 13.1102 14.8125 13.431 14.649C13.7133 14.5052 13.9427 14.2757 14.0866 13.9935C14.25 13.6726 14.25 13.2526 14.25 12.4125V5.0625L9.69005 1.6425C9.17366 1.25521 8.91547 1.06156 8.6319 0.986918C8.38159 0.921028 8.1185 0.921028 7.8682 0.986918C7.58463 1.06156 7.32643 1.25521 6.81005 1.6425L2.25005 5.0625Z" stroke="var(--stroke-0, white)" stroke-opacity="0.5" stroke-width="1.5" stroke-linecap="round" stroke-linejoin="round"/>
</svg>
