<svg preserveAspectRatio="none" width="100%" height="100%" overflow="visible" style="display: block;" viewBox="0 0 14.8337 11.4213" fill="none" xmlns="http://www.w3.org/2000/svg">
<path id="Icon" d="M0.750164 7.37732L7.17832 10.5914C7.26577 10.6351 7.3095 10.657 7.35536 10.6656C7.39599 10.6732 7.43767 10.6732 7.4783 10.6656C7.52416 10.657 7.56789 10.6351 7.65534 10.5914L14.0835 7.37732M0.750164 4.04399L7.17832 0.829912C7.26577 0.786185 7.3095 0.764321 7.35536 0.755716C7.39599 0.748095 7.43767 0.748095 7.4783 0.755716C7.52416 0.764321 7.56789 0.786185 7.65534 0.829912L14.0835 4.04399L7.65534 7.25807C7.56789 7.30179 7.52416 7.32366 7.4783 7.33226C7.43767 7.33988 7.39599 7.33988 7.35536 7.33226C7.3095 7.32366 7.26577 7.30179 7.17832 7.25807L0.750164 4.04399Z" stroke="var(--stroke-0, #667185)" stroke-width="1.5" stroke-linecap="round" stroke-linejoin="round"/>
</svg>
