<svg preserveAspectRatio="none" width="100%" height="100%" overflow="visible" style="display: block;" viewBox="0 0 31.9266 32" fill="none" xmlns="http://www.w3.org/2000/svg">
<g id="Layer_x0020_1">
<path id="Vector" fill-rule="evenodd" clip-rule="evenodd" d="M17.3616 8.83156V0C20.7365 0.292418 23.812 1.63343 26.2622 3.69597L20.0322 9.94032C20.8113 10.4669 21.4837 11.1408 22.0091 11.9218L28.2391 5.67741C30.2969 8.13364 31.6349 11.2162 31.9266 14.5984H23.1153C23.203 15.0519 23.2498 15.5203 23.2498 16C23.2498 16.4794 23.203 16.9477 23.1153 17.4012H31.9266C31.6349 20.7838 30.2973 23.8664 28.2391 26.3226L22.0091 20.0782C21.4837 20.8592 20.8117 21.5327 20.0322 22.0597L26.2622 28.304C23.8116 30.3666 20.7361 31.7076 17.3613 32V23.1684C16.9088 23.2564 16.4416 23.3032 15.9629 23.3032C15.4847 23.3032 15.0174 23.2564 14.565 23.1684V32C11.1901 31.7076 8.11461 30.3666 5.664 28.304L11.894 22.0597C11.1149 21.5331 10.4429 20.8592 9.91752 20.0782L3.68749 26.3226C1.6293 23.8664 0.291748 20.7838 0 17.4012H8.81131C8.72355 16.9477 8.67683 16.4794 8.67683 16C8.67683 15.5206 8.72355 15.0523 8.81131 14.5984H0C0.291748 11.2158 1.62968 8.13326 3.68749 5.67741L9.91752 11.9218C10.4429 11.1404 11.1153 10.4669 11.8944 9.94032L5.66438 3.69597C8.11499 1.63305 11.1905 0.292418 14.5653 0V8.83156C15.0178 8.74361 15.485 8.69678 15.9633 8.69678C16.4416 8.69678 16.9088 8.74361 17.3616 8.83195V8.83156ZM15.9633 14.2485C16.9282 14.2485 17.7107 15.0325 17.7107 16C17.7107 16.9671 16.9286 17.7515 15.9633 17.7515C14.9984 17.7515 14.2159 16.9675 14.2159 16C14.2159 15.0329 14.998 14.2485 15.9633 14.2485Z" fill="var(--fill-0, #F7FDFF)"/>
</g>
</svg>
