<svg preserveAspectRatio="none" width="100%" height="100%" overflow="visible" style="display: block;" viewBox="0 0 12 16.5" fill="none" xmlns="http://www.w3.org/2000/svg">
<path id="Icon" d="M4.125 15.75H7.875M8.25 10.7448C10.0237 9.90218 11.25 8.0943 11.25 6C11.25 3.1005 8.8995 0.75 6 0.75C3.1005 0.75 0.75 3.1005 0.75 6C0.75 8.0943 1.97629 9.90218 3.75 10.7448V11.25C3.75 11.9489 3.75 12.2984 3.86418 12.574C4.01642 12.9416 4.30843 13.2336 4.67597 13.3858C4.95163 13.5 5.30109 13.5 6 13.5C6.69891 13.5 7.04837 13.5 7.32402 13.3858C7.69157 13.2336 7.98358 12.9416 8.13582 12.574C8.25 12.2984 8.25 11.9489 8.25 11.25V10.7448Z" stroke="var(--stroke-0, white)" stroke-opacity="0.5" stroke-width="1.5" stroke-linecap="round" stroke-linejoin="round"/>
</svg>
