<svg preserveAspectRatio="none" width="100%" height="100%" overflow="visible" style="display: block;" viewBox="0 0 16.5 16.5" fill="none" xmlns="http://www.w3.org/2000/svg">
<path id="Icon" d="M7.875 3H8.2008C10.4862 3 11.6289 3 12.0627 3.41047C12.4377 3.76528 12.6039 4.28796 12.5026 4.79416C12.3855 5.37976 11.4526 6.03964 9.58671 7.3594L6.53829 9.5156C4.67243 10.8354 3.73949 11.4952 3.62238 12.0808C3.52114 12.587 3.68731 13.1097 4.06227 13.4645C4.49605 13.875 5.63877 13.875 7.9242 13.875H8.625M5.25 3C5.25 4.24264 4.24264 5.25 3 5.25C1.75736 5.25 0.75 4.24264 0.75 3C0.75 1.75736 1.75736 0.75 3 0.75C4.24264 0.75 5.25 1.75736 5.25 3ZM15.75 13.5C15.75 14.7426 14.7426 15.75 13.5 15.75C12.2574 15.75 11.25 14.7426 11.25 13.5C11.25 12.2574 12.2574 11.25 13.5 11.25C14.7426 11.25 15.75 12.2574 15.75 13.5Z" stroke="var(--stroke-0, white)" stroke-width="1.5" stroke-linecap="round" stroke-linejoin="round"/>
</svg>
