<svg preserveAspectRatio="none" width="100%" height="100%" overflow="visible" style="display: block;" viewBox="0 0 14.9352 16.5" fill="none" xmlns="http://www.w3.org/2000/svg">
<g id="Icon">
<path d="M5.51259 13.7783L5.95092 14.7642C6.08123 15.0576 6.29388 15.307 6.56309 15.482C6.8323 15.6569 7.14651 15.7501 7.46759 15.75C7.78867 15.7501 8.10288 15.6569 8.37209 15.482C8.6413 15.307 8.85395 15.0576 8.98426 14.7642L9.42259 13.7783C9.57863 13.4285 9.84109 13.1369 10.1726 12.945C10.5062 12.7526 10.8921 12.6706 11.2751 12.7108L12.3476 12.825C12.6668 12.8588 12.989 12.7992 13.2751 12.6535C13.5612 12.5078 13.7988 12.2822 13.9593 12.0042C14.1199 11.7263 14.1964 11.4077 14.1796 11.0872C14.1627 10.7666 14.0532 10.4579 13.8643 10.1983L13.2293 9.32583C13.0031 9.01285 12.8823 8.63611 12.8843 8.25C12.8842 7.86494 13.0061 7.48976 13.2326 7.17833L13.8676 6.30583C14.0565 6.04632 14.166 5.73755 14.1829 5.41701C14.1998 5.09646 14.1232 4.77791 13.9626 4.5C13.8022 4.22193 13.5645 3.99637 13.2784 3.85067C12.9924 3.70497 12.6702 3.6454 12.3509 3.67917L11.2784 3.79333C10.8954 3.83356 10.5095 3.75159 10.1759 3.55917C9.84377 3.36619 9.58123 3.07302 9.42592 2.72167L8.98426 1.73583C8.85395 1.44238 8.6413 1.19304 8.37209 1.01805C8.10288 0.843062 7.78867 0.749948 7.46759 0.75C7.14651 0.749948 6.8323 0.843062 6.56309 1.01805C6.29388 1.19304 6.08123 1.44238 5.95092 1.73583L5.51259 2.72167C5.35729 3.07302 5.09475 3.36619 4.76259 3.55917C4.429 3.75159 4.04309 3.83356 3.66009 3.79333L2.58426 3.67917C2.265 3.6454 1.94281 3.70497 1.65674 3.85067C1.37068 3.99637 1.13302 4.22193 0.97259 4.5C0.811956 4.77791 0.735428 5.09646 0.752291 5.41701C0.769154 5.73755 0.878684 6.04632 1.06759 6.30583L1.70259 7.17833C1.92905 7.48976 2.05099 7.86494 2.05092 8.25C2.05099 8.63506 1.92905 9.01024 1.70259 9.32167L1.06759 10.1942C0.878684 10.4537 0.769154 10.7624 0.752291 11.083C0.735428 11.4035 0.811956 11.7221 0.97259 12C1.13318 12.2779 1.37086 12.5034 1.65689 12.649C1.94292 12.7947 2.26503 12.8544 2.58426 12.8208L3.65676 12.7067C4.03976 12.6664 4.42567 12.7484 4.75926 12.9408C5.09265 13.1333 5.35641 13.4265 5.51259 13.7783Z" stroke="var(--stroke-0, white)" stroke-opacity="0.5" stroke-width="1.5" stroke-linecap="round" stroke-linejoin="round"/>
<path d="M7.46625 10.5C8.70889 10.5 9.71625 9.49264 9.71625 8.25C9.71625 7.00736 8.70889 6 7.46625 6C6.22361 6 5.21625 7.00736 5.21625 8.25C5.21625 9.49264 6.22361 10.5 7.46625 10.5Z" stroke="var(--stroke-0, white)" stroke-opacity="0.5" stroke-width="1.5" stroke-linecap="round" stroke-linejoin="round"/>
</g>
</svg>
