<svg preserveAspectRatio="none" width="100%" height="100%" overflow="visible" style="display: block;" viewBox="0 0 16.4042 15.0004" fill="none" xmlns="http://www.w3.org/2000/svg">
<path id="Icon" d="M12.7096 10.3777C13.8015 10.9262 14.7377 11.8065 15.421 12.9072C15.5564 13.1252 15.624 13.2342 15.6474 13.3851C15.6949 13.6918 15.4852 14.0689 15.1996 14.1903C15.059 14.25 14.9009 14.25 14.5846 14.25M11.2096 7.14918C12.3209 6.59692 13.0846 5.45015 13.0846 4.125C13.0846 2.79985 12.3209 1.65308 11.2096 1.10082M9.7096 4.125C9.7096 5.98896 8.19856 7.5 6.3346 7.5C4.47064 7.5 2.9596 5.98896 2.9596 4.125C2.9596 2.26104 4.47064 0.75 6.3346 0.75C8.19856 0.75 9.7096 2.26104 9.7096 4.125ZM1.12902 12.7038C2.32476 10.9084 4.21163 9.75 6.3346 9.75C8.45757 9.75 10.3444 10.9084 11.5402 12.7038C11.8021 13.0971 11.9331 13.2937 11.918 13.5449C11.9063 13.7405 11.7781 13.98 11.6218 14.0982C11.421 14.25 11.145 14.25 10.5928 14.25H2.07637C1.52423 14.25 1.24816 14.25 1.04743 14.0982C0.891138 13.98 0.762918 13.7405 0.751177 13.5449C0.736098 13.2937 0.867074 13.0971 1.12902 12.7038Z" stroke="var(--stroke-0, white)" stroke-opacity="0.5" stroke-width="1.5" stroke-linecap="round" stroke-linejoin="round"/>
</svg>
