<svg preserveAspectRatio="none" width="100%" height="100%" overflow="visible" style="display: block;" viewBox="0 0 26.4935 26.6061" fill="none" xmlns="http://www.w3.org/2000/svg">
<g id="Group">
<path id="Vector" d="M23.6393 12.9511C23.7976 12.2349 23.8838 11.4917 23.8898 10.7293C23.9359 4.87217 19.1801 0.0414883 13.323 0.000269591C7.40945 -0.0413436 2.60257 4.73983 2.60257 10.6438C2.60257 11.4621 2.69493 12.2589 2.8698 13.0243C3.58189 16.1409 2.60401 19.3691 0.447818 21.7294C0.155737 22.0491 0 22.3851 0 22.7319C0 24.8715 5.93057 26.6061 13.2463 26.6061C20.562 26.6061 26.4925 24.8715 26.4925 22.7319C26.4925 22.3681 26.3212 22.0161 26.0007 21.6824C23.7805 19.3698 22.9473 16.0815 23.6393 12.9511Z" fill="url(#paint0_linear_0_27)"/>
<path id="Vector_2" d="M23.6402 12.9511C23.7985 12.2349 23.8847 11.4917 23.8907 10.7293C23.9368 4.87217 19.181 0.041486 13.3239 0.000267245C12.153 -0.00795021 11.0258 0.173557 9.97037 0.514745V26.4865C11.0184 26.5645 12.1162 26.6061 13.2472 26.6061C20.563 26.6061 26.4935 24.8715 26.4935 22.7318C26.4935 22.3681 26.3221 22.0161 26.0017 21.6824C23.7814 19.3698 22.9482 16.0815 23.6402 12.9511Z" fill="url(#paint1_linear_0_27)"/>
<path id="Vector_3" d="M2.60257 10.6436C2.60257 11.462 2.69493 12.2587 2.8698 13.0241C3.58189 16.1406 2.60401 19.3689 0.447818 21.7292C0.155737 22.0489 0 22.3849 0 22.7316C0 24.8713 5.93057 26.6059 13.2463 26.6059C20.562 26.6059 26.4925 24.8713 26.4925 22.7316C26.4925 22.3679 26.3212 22.0159 26.0007 21.6822C23.7804 19.3696 22.9473 16.0813 23.6392 12.9509C23.7975 12.2347 23.8837 11.4915 23.8897 10.7291C23.8968 9.82668 23.7895 8.94886 23.5822 8.10897H2.90707C2.7086 8.92138 2.60257 9.77001 2.60257 10.6436Z" fill="url(#paint2_linear_0_27)"/>
</g>
<defs>
<linearGradient id="paint0_linear_0_27" x1="6.02464" y1="13.3031" x2="17.2169" y2="13.3031" gradientUnits="userSpaceOnUse">
<stop stop-color="#FEF0AE"/>
<stop offset="1" stop-color="#FAC600"/>
</linearGradient>
<linearGradient id="paint1_linear_0_27" x1="14.08" y1="13.5048" x2="23.1339" y2="14.6075" gradientUnits="userSpaceOnUse">
<stop stop-color="#FE9738" stop-opacity="0"/>
<stop offset="1" stop-color="#FE9738"/>
</linearGradient>
<linearGradient id="paint2_linear_0_27" x1="13.2463" y1="13.1002" x2="13.2463" y2="19.4274" gradientUnits="userSpaceOnUse">
<stop stop-color="#FE9738" stop-opacity="0"/>
<stop offset="1" stop-color="#FE9738"/>
</linearGradient>
</defs>
</svg>
