<svg preserveAspectRatio="none" width="100%" height="100%" overflow="visible" style="display: block;" viewBox="0 0 28.3145 13.7727" fill="none" xmlns="http://www.w3.org/2000/svg">
<g id="Group">
<g id="Group_2">
<path id="Vector" d="M14.1572 13.7718C21.976 13.7718 28.3145 10.689 28.3145 6.88609C28.3145 3.08322 21.976 0.000390932 14.1572 0.000390932C6.33841 0.000390932 0 3.08322 0 6.88609C0 10.689 6.33841 13.7718 14.1572 13.7718Z" fill="url(#paint0_linear_0_15)"/>
<path id="Vector_2" d="M0 6.887C0 5.51719 0.822534 4.24085 2.24028 3.16831H26.0742C27.4919 4.24085 28.3145 5.51719 28.3145 6.887C28.3145 10.6898 21.976 13.7727 14.1572 13.7727C6.33842 13.7727 0 10.6898 0 6.887Z" fill="url(#paint1_linear_0_15)"/>
<path id="Vector_3" d="M14.1573 12.5248C20.5595 12.5248 25.7495 10.2298 25.7495 7.39884C25.7495 4.56787 20.5595 2.27292 14.1573 2.27292C7.75511 2.27292 2.56511 4.56787 2.56511 7.39884C2.56511 10.2298 7.75511 12.5248 14.1573 12.5248Z" fill="url(#paint2_linear_0_15)"/>
<path id="Vector_4" d="M14.1573 12.5248C20.5595 12.5248 25.7495 10.2298 25.7495 7.39884C25.7495 4.56787 20.5595 2.27292 14.1573 2.27292C7.75511 2.27292 2.56511 4.56787 2.56511 7.39884C2.56511 10.2298 7.75511 12.5248 14.1573 12.5248Z" fill="url(#paint3_linear_0_15)"/>
<path id="Vector_5" d="M14.9707 0.0130021C22.4108 0.21811 28.3143 3.21715 28.3143 6.88713C28.3143 10.5571 22.4108 13.5562 14.9707 13.7613V0.0130021Z" fill="url(#paint4_linear_0_15)"/>
<path id="Vector_6" d="M15.276 12.5009L10.8809 8.1058V2.48099C11.9201 2.34583 13.0196 2.27292 14.1578 2.27292C20.5599 2.27292 25.75 4.56789 25.75 7.39884C25.75 10.0629 21.1534 12.2521 15.276 12.5009Z" fill="url(#paint5_linear_0_15)"/>
</g>
<path id="Vector_7" d="M9.44701 4.72291C9.44701 3.96808 9.62556 3.25527 9.94118 2.62292C9.94118 2.62292 11.25 2.19706 14.1573 2.19706C17.0645 2.19706 18.3733 2.62292 18.3733 2.62292C18.689 3.25533 18.8675 3.96808 18.8675 4.72291C18.8675 7.32429 16.7586 9.43315 14.1573 9.43315C11.5559 9.43315 9.44701 7.32429 9.44701 4.72291Z" fill="url(#paint6_linear_0_15)"/>
<path id="Vector_8" d="M9.44701 4.72291C9.44701 3.96808 9.62556 3.25527 9.94118 2.62292C9.94118 2.62292 11.25 2.19706 14.1573 2.19706C17.0645 2.19706 18.3733 2.62292 18.3733 2.62292C18.689 3.25533 18.8675 3.96808 18.8675 4.72291C18.8675 7.32429 16.7586 9.43315 14.1573 9.43315C11.5559 9.43315 9.44701 7.32429 9.44701 4.72291Z" fill="url(#paint7_linear_0_15)"/>
<path id="Vector_9" d="M14.1573 2.19706C17.0646 2.19706 18.3734 2.62292 18.3734 2.62292C18.689 3.25533 18.8676 3.96808 18.8676 4.72291C18.8676 7.32429 16.7587 9.43315 14.1573 9.43315C13.7857 9.43315 13.4246 9.38878 13.0778 9.30739V2.21803C13.4099 2.20481 13.7689 2.19706 14.1573 2.19706Z" fill="url(#paint8_linear_0_15)"/>
</g>
<defs>
<linearGradient id="paint0_linear_0_15" x1="14.1572" y1="0.701964" x2="14.1572" y2="13.5096" gradientUnits="userSpaceOnUse">
<stop stop-color="#FEF0AE"/>
<stop offset="1" stop-color="#FAC600"/>
</linearGradient>
<linearGradient id="paint1_linear_0_15" x1="14.1572" y1="8.53832" x2="14.1572" y2="14.2708" gradientUnits="userSpaceOnUse">
<stop stop-color="#FE9738" stop-opacity="0"/>
<stop offset="1" stop-color="#FE9738"/>
</linearGradient>
<linearGradient id="paint2_linear_0_15" x1="11.4652" y1="-4.73269" x2="15.7504" y2="14.5776" gradientUnits="userSpaceOnUse">
<stop stop-color="#FE9738" stop-opacity="0"/>
<stop offset="1" stop-color="#FE9738"/>
</linearGradient>
<linearGradient id="paint3_linear_0_15" x1="14.1573" y1="9.51427" x2="14.1573" y2="2.19607" gradientUnits="userSpaceOnUse">
<stop stop-color="#FE9738" stop-opacity="0"/>
<stop offset="1" stop-color="#FE9738"/>
</linearGradient>
<linearGradient id="paint4_linear_0_15" x1="20.0881" y1="8.14467" x2="25.9463" y2="12.4569" gradientUnits="userSpaceOnUse">
<stop stop-color="#FE9738" stop-opacity="0"/>
<stop offset="1" stop-color="#FE9738"/>
</linearGradient>
<linearGradient id="paint5_linear_0_15" x1="20.9666" y1="9.82772" x2="16.1933" y2="5.21714" gradientUnits="userSpaceOnUse">
<stop stop-color="#FE9738" stop-opacity="0"/>
<stop offset="1" stop-color="#FE9738"/>
</linearGradient>
<linearGradient id="paint6_linear_0_15" x1="12.1418" y1="3.79282" x2="16.8338" y2="6.85747" gradientUnits="userSpaceOnUse">
<stop stop-color="#F5FBFF"/>
<stop offset="1" stop-color="#DBD5EF"/>
</linearGradient>
<linearGradient id="paint7_linear_0_15" x1="13.8767" y1="6.62324" x2="14.5818" y2="1.84995" gradientUnits="userSpaceOnUse">
<stop stop-color="#DBD5EF" stop-opacity="0"/>
<stop offset="0.2853" stop-color="#D9D2EE" stop-opacity="0.285"/>
<stop offset="0.4739" stop-color="#D4C9E9" stop-opacity="0.474"/>
<stop offset="0.6346" stop-color="#CBBAE2" stop-opacity="0.635"/>
<stop offset="0.7795" stop-color="#BFA5D7" stop-opacity="0.78"/>
<stop offset="0.9126" stop-color="#AF8ACA" stop-opacity="0.913"/>
<stop offset="1" stop-color="#A274BF"/>
</linearGradient>
<linearGradient id="paint8_linear_0_15" x1="14.4338" y1="5.81504" x2="18.9902" y2="5.81504" gradientUnits="userSpaceOnUse">
<stop stop-color="#DBD5EF" stop-opacity="0"/>
<stop offset="0.2853" stop-color="#D9D2EE" stop-opacity="0.285"/>
<stop offset="0.4739" stop-color="#D4C9E9" stop-opacity="0.474"/>
<stop offset="0.6346" stop-color="#CBBAE2" stop-opacity="0.635"/>
<stop offset="0.7795" stop-color="#BFA5D7" stop-opacity="0.78"/>
<stop offset="0.9126" stop-color="#AF8ACA" stop-opacity="0.913"/>
<stop offset="1" stop-color="#A274BF"/>
</linearGradient>
</defs>
</svg>
