<svg preserveAspectRatio="none" width="100%" height="100%" overflow="visible" style="display: block;" viewBox="0 0 81.5676 78.8787" fill="none" xmlns="http://www.w3.org/2000/svg">
<g id="Vector 4932" filter="url(#filter0_dd_0_17)">
<path d="M51.5615 9.13298L28.0077 15.1647C24.0137 16.1875 23.9914 21.8526 27.9773 22.9067L33.8109 24.4495C35.3781 24.864 36.5401 26.1833 36.7534 27.7902L37.631 34.4016C38.1444 38.2687 43.3241 39.1887 45.1377 35.7349L56.0953 14.8676C57.7066 11.7991 54.919 8.2732 51.5615 9.13298Z" fill="var(--fill-0, #FACC15)"/>
<path d="M51.5615 9.13298L28.0077 15.1647C24.0137 16.1875 23.9914 21.8526 27.9773 22.9067L33.8109 24.4495C35.3781 24.864 36.5401 26.1833 36.7534 27.7902L37.631 34.4016C38.1444 38.2687 43.3241 39.1887 45.1377 35.7349L56.0953 14.8676C57.7066 11.7991 54.919 8.2732 51.5615 9.13298Z" stroke="var(--stroke-0, #050815)" stroke-width="2"/>
</g>
<defs>
<filter id="filter0_dd_0_17" x="0" y="2.38419e-07" width="81.5676" height="78.8787" filterUnits="userSpaceOnUse" color-interpolation-filters="sRGB">
<feFlood flood-opacity="0" result="BackgroundImageFix"/>
<feColorMatrix in="SourceAlpha" type="matrix" values="0 0 0 0 0 0 0 0 0 0 0 0 0 0 0 0 0 0 127 0" result="hardAlpha"/>
<feOffset dy="4"/>
<feGaussianBlur stdDeviation="3"/>
<feColorMatrix type="matrix" values="0 0 0 0 0.0627451 0 0 0 0 0.0980392 0 0 0 0 0.156863 0 0 0 0.12 0"/>
<feBlend mode="normal" in2="BackgroundImageFix" result="effect1_dropShadow_0_17"/>
<feColorMatrix in="SourceAlpha" type="matrix" values="0 0 0 0 0 0 0 0 0 0 0 0 0 0 0 0 0 0 127 0" result="hardAlpha"/>
<feOffset dy="16"/>
<feGaussianBlur stdDeviation="12"/>
<feColorMatrix type="matrix" values="0 0 0 0 0.0627451 0 0 0 0 0.0980392 0 0 0 0 0.156863 0 0 0 0.24 0"/>
<feBlend mode="normal" in2="effect1_dropShadow_0_17" result="effect2_dropShadow_0_17"/>
<feBlend mode="normal" in="SourceGraphic" in2="effect2_dropShadow_0_17" result="shape"/>
</filter>
</defs>
</svg>
