<svg preserveAspectRatio="none" width="100%" height="100%" overflow="visible" style="display: block;" viewBox="0 0 16.6634 17.9168" fill="none" xmlns="http://www.w3.org/2000/svg">
<g id="Group">
<path id="Vector" d="M11.4575 9.58333C11.7037 9.58333 11.9475 9.63183 12.175 9.72606C12.4025 9.82029 12.6092 9.9584 12.7833 10.1325C12.9574 10.3066 13.0955 10.5133 13.1898 10.7408C13.284 10.9683 13.3325 11.2121 13.3325 11.4583V12.2125C13.3325 12.6628 13.2352 13.1078 13.0472 13.517C12.8592 13.9262 12.585 14.29 12.2433 14.5833C10.9383 15.7033 9.07167 16.2508 6.66333 16.2508C4.255 16.2508 2.39 15.7033 1.0875 14.5842C0.746264 14.2907 0.472433 13.9271 0.28474 13.518C0.0970462 13.109 -8.14168e-05 12.6642 5.12074e-08 12.2142V11.4583C5.12074e-08 10.9611 0.197544 10.4841 0.549175 10.1325C0.900805 9.78088 1.37772 9.58333 1.875 9.58333H11.4575Z" fill="url(#paint0_radial_0_30)"/>
<path id="Vector_2" d="M11.4575 9.58333C11.7037 9.58333 11.9475 9.63183 12.175 9.72606C12.4025 9.82029 12.6092 9.9584 12.7833 10.1325C12.9574 10.3066 13.0955 10.5133 13.1898 10.7408C13.284 10.9683 13.3325 11.2121 13.3325 11.4583V12.2125C13.3325 12.6628 13.2352 13.1078 13.0472 13.517C12.8592 13.9262 12.585 14.29 12.2433 14.5833C10.9383 15.7033 9.07167 16.2508 6.66333 16.2508C4.255 16.2508 2.39 15.7033 1.0875 14.5842C0.746264 14.2907 0.472433 13.9271 0.28474 13.518C0.0970462 13.109 -8.14168e-05 12.6642 5.12074e-08 12.2142V11.4583C5.12074e-08 10.9611 0.197544 10.4841 0.549175 10.1325C0.900805 9.78088 1.37772 9.58333 1.875 9.58333H11.4575Z" fill="url(#paint1_linear_0_30)"/>
<path id="Vector_3" d="M11.4575 9.58333C11.7037 9.58333 11.9475 9.63183 12.175 9.72606C12.4025 9.82029 12.6092 9.9584 12.7833 10.1325C12.9574 10.3066 13.0955 10.5133 13.1898 10.7408C13.284 10.9683 13.3325 11.2121 13.3325 11.4583V12.2125C13.3325 12.6628 13.2352 13.1078 13.0472 13.517C12.8592 13.9262 12.585 14.29 12.2433 14.5833C10.9383 15.7033 9.07167 16.2508 6.66333 16.2508C4.255 16.2508 2.39 15.7033 1.0875 14.5842C0.746264 14.2907 0.472433 13.9271 0.28474 13.518C0.0970462 13.109 -8.14168e-05 12.6642 5.12074e-08 12.2142V11.4583C5.12074e-08 10.9611 0.197544 10.4841 0.549175 10.1325C0.900805 9.78088 1.37772 9.58333 1.875 9.58333H11.4575Z" fill="url(#paint2_radial_0_30)"/>
<path id="Vector_4" d="M11.4575 9.58333C11.7037 9.58333 11.9475 9.63183 12.175 9.72606C12.4025 9.82029 12.6092 9.9584 12.7833 10.1325C12.9574 10.3066 13.0955 10.5133 13.1898 10.7408C13.284 10.9683 13.3325 11.2121 13.3325 11.4583V12.2125C13.3325 12.6628 13.2352 13.1078 13.0472 13.517C12.8592 13.9262 12.585 14.29 12.2433 14.5833C10.9383 15.7033 9.07167 16.2508 6.66333 16.2508C4.255 16.2508 2.39 15.7033 1.0875 14.5842C0.746264 14.2907 0.472433 13.9271 0.28474 13.518C0.0970462 13.109 -8.14168e-05 12.6642 5.12074e-08 12.2142V11.4583C5.12074e-08 10.9611 0.197544 10.4841 0.549175 10.1325C0.900805 9.78088 1.37772 9.58333 1.875 9.58333H11.4575Z" fill="url(#paint3_radial_0_30)"/>
<path id="Vector_5" d="M11.4575 9.58333C11.7037 9.58333 11.9475 9.63183 12.175 9.72606C12.4025 9.82029 12.6092 9.9584 12.7833 10.1325C12.9574 10.3066 13.0955 10.5133 13.1898 10.7408C13.284 10.9683 13.3325 11.2121 13.3325 11.4583V12.2125C13.3325 12.6628 13.2352 13.1078 13.0472 13.517C12.8592 13.9262 12.585 14.29 12.2433 14.5833C10.9383 15.7033 9.07167 16.2508 6.66333 16.2508C4.255 16.2508 2.39 15.7033 1.0875 14.5842C0.746264 14.2907 0.472433 13.9271 0.28474 13.518C0.0970462 13.109 -8.14168e-05 12.6642 5.12074e-08 12.2142V11.4583C5.12074e-08 10.9611 0.197544 10.4841 0.549175 10.1325C0.900805 9.78088 1.37772 9.58333 1.875 9.58333H11.4575Z" fill="url(#paint4_linear_0_30)"/>
<path id="Vector_6" d="M6.66333 7.94729e-08L6.57833 0.00583339C6.4287 0.0263736 6.29158 0.100401 6.19231 0.214225C6.09304 0.328048 6.03834 0.473969 6.03833 0.625L6.0325 2.08333H7.2825L7.28833 0.625L7.2825 0.54C7.26196 0.390372 7.18793 0.253243 7.07411 0.153973C6.96028 0.0547023 6.81436 6.44855e-06 6.66333 7.94729e-08Z" fill="url(#paint5_linear_0_30)"/>
<path id="Vector_7" d="M11.6633 3.125C11.6633 2.62772 11.4658 2.15081 11.1142 1.79918C10.7625 1.44754 10.2856 1.25 9.78833 1.25H3.53833C3.04105 1.25 2.56414 1.44754 2.21251 1.79918C1.86088 2.15081 1.66333 2.62772 1.66333 3.125V6.04167C1.66333 6.53895 1.86088 7.01586 2.21251 7.36749C2.56414 7.71912 3.04105 7.91667 3.53833 7.91667H9.78833C10.2856 7.91667 10.7625 7.71912 11.1142 7.36749C11.4658 7.01586 11.6633 6.53895 11.6633 6.04167V3.125Z" fill="url(#paint6_linear_0_30)"/>
<path id="Vector_8" d="M8.53167 3.33333C8.39245 3.32939 8.25386 3.35341 8.12408 3.40397C7.99431 3.45453 7.87599 3.53059 7.77613 3.62767C7.67626 3.72475 7.59688 3.84087 7.54268 3.96916C7.48847 4.09745 7.46054 4.23531 7.46054 4.37458C7.46054 4.51386 7.48847 4.65172 7.54268 4.78001C7.59688 4.9083 7.67626 5.02442 7.77613 5.1215C7.87599 5.21857 7.99431 5.29464 8.12408 5.3452C8.25386 5.39575 8.39245 5.41977 8.53167 5.41583C8.80272 5.40816 9.06011 5.2951 9.24912 5.10066C9.43813 4.90623 9.54387 4.64575 9.54387 4.37458C9.54387 4.10342 9.43813 3.84294 9.24912 3.6485C9.06011 3.45407 8.80272 3.341 8.53167 3.33333Z" fill="url(#paint7_linear_0_30)"/>
<path id="Vector_9" d="M4.78833 3.33333C4.64912 3.32939 4.51052 3.35341 4.38075 3.40397C4.25098 3.45453 4.13266 3.53059 4.03279 3.62767C3.93293 3.72475 3.85355 3.84087 3.79934 3.96916C3.74514 4.09745 3.71721 4.23531 3.71721 4.37458C3.71721 4.51386 3.74514 4.65172 3.79934 4.78001C3.85355 4.9083 3.93293 5.02442 4.03279 5.1215C4.13266 5.21857 4.25098 5.29464 4.38075 5.3452C4.51052 5.39575 4.64912 5.41977 4.78833 5.41583C5.05939 5.40816 5.31677 5.2951 5.50579 5.10066C5.6948 4.90623 5.80054 4.64575 5.80054 4.37458C5.80054 4.10342 5.6948 3.84294 5.50579 3.6485C5.31677 3.45407 5.05939 3.341 4.78833 3.33333Z" fill="url(#paint8_linear_0_30)"/>
<path id="Vector_10" d="M15.845 15.3875L16.4825 15.5942L16.495 15.5975C16.5318 15.6105 16.565 15.6318 16.5922 15.6598C16.6193 15.6877 16.6396 15.7216 16.6515 15.7587C16.6633 15.7959 16.6664 15.8352 16.6605 15.8738C16.6547 15.9123 16.6399 15.9489 16.6175 15.9808C16.5872 16.0234 16.5444 16.0555 16.495 16.0725L15.8575 16.2792C15.6635 16.3437 15.4872 16.4525 15.3425 16.597C15.1979 16.7415 15.0889 16.9177 15.0242 17.1117L14.8175 17.7483C14.8002 17.7976 14.7681 17.8402 14.7256 17.8704C14.683 17.9005 14.6322 17.9168 14.58 17.9168C14.5278 17.9168 14.477 17.9005 14.4344 17.8704C14.3919 17.8402 14.3598 17.7976 14.3425 17.7483L14.135 17.1117C14.0707 16.9174 13.962 16.7407 13.8174 16.5958C13.6729 16.4508 13.4966 16.3416 13.3025 16.2767L12.665 16.0692C12.6282 16.0562 12.595 16.0349 12.5678 16.0069C12.5407 15.9789 12.5204 15.9451 12.5085 15.9079C12.4967 15.8708 12.4936 15.8314 12.4995 15.7929C12.5053 15.7544 12.5201 15.7177 12.5425 15.6858C12.5728 15.6432 12.6156 15.6112 12.665 15.5942L13.3025 15.3875C13.4939 15.3213 13.6675 15.2118 13.8098 15.0676C13.952 14.9233 14.059 14.7482 14.1225 14.5558L14.33 13.9183C14.3473 13.8691 14.3794 13.8265 14.4219 13.7963C14.4645 13.7661 14.5153 13.7499 14.5675 13.7499C14.6197 13.7499 14.6705 13.7661 14.7131 13.7963C14.7556 13.8265 14.7877 13.8691 14.805 13.9183L15.0125 14.555C15.0771 14.7488 15.186 14.925 15.3305 15.0695C15.475 15.214 15.6512 15.3229 15.845 15.3875Z" fill="var(--fill-0, #FACC15)"/>
<path id="Vector_11" d="M9.875 12.205C10.1347 12.466 10.3301 12.7838 10.4458 13.1333L10.8192 14.2808C10.8504 14.3693 10.9083 14.4459 10.9848 14.5001C11.0614 14.5542 11.1529 14.5833 11.2467 14.5833C11.3405 14.5833 11.4319 14.5542 11.5085 14.5001C11.5851 14.4459 11.643 14.3693 11.6742 14.2808L12.0475 13.1333C12.1639 12.7846 12.3598 12.4678 12.6199 12.2081C12.88 11.9483 13.197 11.7526 13.5458 11.6367L14.6942 11.2633C14.782 11.2316 14.8578 11.1735 14.9115 11.0971C14.9651 11.0207 14.9938 10.9296 14.9938 10.8362C14.9938 10.7429 14.9651 10.6518 14.9115 10.5754C14.8578 10.499 14.782 10.4409 14.6942 10.4092L14.6708 10.4033L13.5225 10.03C13.1737 9.91403 12.8567 9.7184 12.5966 9.45861C12.3365 9.19883 12.1405 8.88203 12.0242 8.53333L11.6517 7.38583C11.6206 7.29709 11.5628 7.2202 11.4861 7.16579C11.4094 7.11139 11.3178 7.08216 11.2237 7.08216C11.1297 7.08216 11.0381 7.11139 10.9614 7.16579C10.8847 7.2202 10.8269 7.29709 10.7958 7.38583L10.4225 8.53333L10.4133 8.56167C10.2966 8.90167 10.1039 9.21061 9.84989 9.46502C9.59591 9.71944 9.2873 9.91266 8.9475 10.03L7.79917 10.4033C7.71138 10.4351 7.63551 10.4931 7.58188 10.5695C7.52826 10.646 7.49949 10.7371 7.49949 10.8304C7.49949 10.9238 7.52826 11.0149 7.58188 11.0913C7.63551 11.1677 7.71138 11.2257 7.79917 11.2575L8.9475 11.6308C9.2975 11.7475 9.61417 11.9442 9.875 12.205Z" fill="var(--fill-0, #FACC15)"/>
</g>
<defs>
<radialGradient id="paint0_radial_0_30" cx="0" cy="0" r="1" gradientUnits="userSpaceOnUse" gradientTransform="translate(-3.07714 7.53172) rotate(30.408) scale(18.5439 29.5375)">
<stop stop-color="#F08AF4"/>
<stop offset="0.535" stop-color="#9C6CFE"/>
<stop offset="1" stop-color="#4E44DB"/>
</radialGradient>
<linearGradient id="paint1_linear_0_30" x1="6.66583" y1="8.78917" x2="9.6825" y2="20.0608" gradientUnits="userSpaceOnUse">
<stop stop-color="#885EDB" stop-opacity="0"/>
<stop offset="1" stop-color="#E362F8"/>
</linearGradient>
<radialGradient id="paint2_radial_0_30" cx="0" cy="0" r="1" gradientUnits="userSpaceOnUse" gradientTransform="translate(11.2817 12.6608) rotate(-90) scale(3.07737 1.74674)">
<stop stop-color="#4E44DB"/>
<stop offset="1" stop-color="#4E44DB" stop-opacity="0"/>
</radialGradient>
<radialGradient id="paint3_radial_0_30" cx="0" cy="0" r="1" gradientUnits="userSpaceOnUse" gradientTransform="translate(10.7686 11.635) rotate(-134.995) scale(2.90112 2.17583)">
<stop stop-color="#4E44DB"/>
<stop offset="1" stop-color="#4E44DB" stop-opacity="0"/>
</radialGradient>
<linearGradient id="paint4_linear_0_30" x1="0" y1="12.9171" x2="13.3325" y2="12.9171" gradientUnits="userSpaceOnUse">
<stop stop-color="#4C2C97"/>
<stop offset="0.191822" stop-color="#6941C6"/>
<stop offset="0.520202" stop-color="#5A57D6"/>
<stop offset="0.992958" stop-color="#3B82F6"/>
</linearGradient>
<linearGradient id="paint5_linear_0_30" x1="6.00417" y1="-0.416667" x2="7.48333" y2="1.1425" gradientUnits="userSpaceOnUse">
<stop stop-color="#8B52F4"/>
<stop offset="1" stop-color="#3D35B1"/>
</linearGradient>
<linearGradient id="paint6_linear_0_30" x1="1.66333" y1="4.58333" x2="11.6633" y2="4.58333" gradientUnits="userSpaceOnUse">
<stop stop-color="#4C2C97"/>
<stop offset="0.191822" stop-color="#6941C6"/>
<stop offset="0.520202" stop-color="#5A57D6"/>
<stop offset="0.992958" stop-color="#3B82F6"/>
</linearGradient>
<linearGradient id="paint7_linear_0_30" x1="7.98417" y1="3.41333" x2="9.5625" y2="6.1375" gradientUnits="userSpaceOnUse">
<stop stop-color="#FDFDFD"/>
<stop offset="1" stop-color="#F9DCFA"/>
</linearGradient>
<linearGradient id="paint8_linear_0_30" x1="4.24" y1="3.41333" x2="5.81833" y2="6.1375" gradientUnits="userSpaceOnUse">
<stop stop-color="#FDFDFD"/>
<stop offset="1" stop-color="#F9DCFA"/>
</linearGradient>
</defs>
</svg>
