<svg preserveAspectRatio="none" width="100%" height="100%" overflow="visible" style="display: block;" viewBox="0 0 88.5698 85.3008" fill="none" xmlns="http://www.w3.org/2000/svg">
<g id="Group">
<path id="Vector" d="M36.4253 85.1948C36.273 85.132 35.401 84.8736 34.4874 84.6082C32.6257 84.0704 32.1066 83.8818 31.3038 83.4767C29.9888 82.8063 29.2621 81.9891 28.8676 80.718L28.6946 80.1383L27.8849 79.6284C27.4419 79.3421 26.6183 78.8043 26.0508 78.4341C25.3241 77.9522 25.068 77.8126 25.1719 77.9522C25.774 78.7345 26.3484 79.803 26.7014 80.8018C26.9229 81.4513 27.6842 84.3288 27.6288 84.3288C27.4488 84.3288 25.1027 82.8132 24.2445 82.1358C23.6147 81.6469 22.5281 80.5364 22.0782 79.9357C21.5661 79.2443 21.0747 78.2875 20.8809 77.5821C20.6733 76.8278 20.6733 75.8779 20.8878 75.2494L21.0401 74.7954L20.8394 74.6278C20.0019 73.9084 18.7838 72.756 18.0156 71.9458L17.0951 70.975L17.4343 71.6385C18.3894 73.5033 18.6939 75.6335 18.4309 78.5319C18.3617 79.2792 18.2855 79.9288 18.2648 79.9777C18.2371 80.0265 17.9672 79.7472 17.6004 79.2792C14.5206 75.424 13.9392 74.3414 13.6831 72.0017C13.517 70.4163 13.8907 68.2791 14.3475 68.2093C14.4375 68.1953 14.6728 68.349 14.9912 68.6144L15.4964 69.0474L14.8804 68.2163C13.87 66.8683 12.4996 64.7242 11.9875 63.7115C11.8906 63.5159 11.8006 63.3762 11.7799 63.3902C11.766 63.4111 11.7868 63.5927 11.8214 63.8023C11.9598 64.5216 12.0152 65.688 11.9598 66.6099C11.8768 67.9579 11.7522 68.4607 10.7348 71.6874C10.5203 72.3579 10.3265 72.9376 10.2988 72.9655C10.2434 73.0284 10.1465 72.7281 9.32985 70.1509C8.03564 66.0512 7.79341 64.4169 8.22943 62.6289C8.42321 61.8327 8.63776 61.3229 9.2122 60.2822L9.7105 59.3882L9.91121 59.6187C10.0219 59.7444 10.0912 59.8003 10.0704 59.7444C10.0496 59.6886 9.91121 59.3254 9.75895 58.9343C9.39214 58.0263 8.99765 56.86 8.67237 55.7634C8.53395 55.2815 8.40245 54.8415 8.38169 54.7857C8.36092 54.7298 8.27095 54.9952 8.1879 55.3793C7.80725 57.0276 7.06671 58.7876 6.18775 60.1216C5.83478 60.6664 5.32956 61.4625 5.07348 61.8886C4.60978 62.6708 4.38831 62.9502 4.30526 62.8664C4.27758 62.8384 4.22913 62.2448 4.20145 61.5464C4.16684 60.841 4.11147 59.8282 4.06995 59.2905C3.97305 57.8657 3.9869 55.5749 4.10455 54.7158C4.42291 52.3342 5.14269 50.9653 6.57532 50.0294C6.81064 49.8758 7.07363 49.7361 7.1636 49.7151C7.35047 49.6662 7.35047 49.7221 7.21897 48.5138C7.09439 47.3475 6.97674 45.4757 6.97674 44.6237V43.9951L6.58917 44.7214C5.84171 46.1392 4.59594 48.011 3.75851 48.9678C3.32249 49.4637 1.0109 51.3634 0.837873 51.3634C0.761743 51.3634 0.74098 51.3145 0.768664 51.2097C0.858636 50.7837 1.25313 48.7513 1.44692 47.6967C2.24974 43.2897 3.46091 40.9989 5.80018 39.4484C6.29849 39.1201 7.1636 38.6382 7.30202 38.6172C7.30894 38.6172 7.37815 38.1912 7.4612 37.6744C7.64807 36.4871 7.95951 34.9785 8.21558 33.9658C8.32632 33.5397 8.39553 33.2185 8.36784 33.2464C8.34016 33.2813 8.17406 33.4978 8.00104 33.7283C7.22589 34.762 6.63069 35.2299 2.58195 37.9677C1.54381 38.6661 0.0212036 39.5671 0.000440793 39.4973C-0.0272429 39.4134 2.54734 34.1613 3.13562 33.0997C3.8554 31.8146 4.24297 31.2838 5.07348 30.4457C5.90399 29.6006 6.87292 28.9022 7.75188 28.4971C8.59624 28.113 9.68974 27.7568 10.0427 27.7568C10.2711 27.7568 10.368 27.7289 10.368 27.666C10.368 27.4076 12.3751 23.5663 13.0326 22.5536C13.1433 22.386 13.081 22.4209 12.6865 22.7422C11.946 23.3358 11.0739 23.8666 9.77971 24.5092C8.38169 25.2006 7.62038 25.473 5.94552 25.906C5.26035 26.0806 4.36063 26.346 3.95229 26.4927C2.78958 26.9117 2.76881 26.8279 3.74466 25.6476C4.13224 25.1727 4.81741 24.3136 5.26727 23.7339C6.81064 21.7295 9.26064 19.5434 10.7486 18.845C11.3854 18.5516 12.645 18.1675 13.5101 18.0139C14.043 17.9161 14.3821 17.9021 15.0465 17.937C15.5172 17.958 15.9739 18.0069 16.0639 18.0418C16.2162 18.1047 16.2854 18.0488 16.7837 17.4691C17.9879 16.0653 19.7597 14.3262 21.0954 13.2157C21.3515 13.0062 21.1508 13.09 19.9881 13.6767C18.6593 14.3541 18.5208 14.403 17.7734 14.5427C14.9427 15.0735 8.63776 15.6672 8.63776 15.4088C8.63776 15.1713 13.0256 12.0494 14.2922 11.3928C15.5379 10.7433 17.6488 10.01 18.7423 9.84236C20.0088 9.6468 21.7529 9.73759 22.8257 10.0589C23.0333 10.1217 23.4624 10.2824 23.7808 10.4151C24.3483 10.6595 24.3483 10.6665 24.2306 10.8062C24.1545 10.897 24.2375 10.862 24.4452 10.7154C25.7532 9.8214 28.8815 8.12424 30.2449 7.57249C30.4664 7.4817 30.6325 7.39789 30.6256 7.38392C30.6117 7.36995 30.2726 7.41884 29.8781 7.4817C28.9922 7.62837 26.2515 7.64233 25.2134 7.50963C24.5213 7.42582 23.5178 7.24424 20.8878 6.74137C20.1057 6.59471 18.9638 6.3782 18.3478 6.26645C17.7249 6.16169 17.2266 6.04295 17.2405 6.00803C17.2751 5.91025 22.625 4.31087 23.5524 4.1223C24.895 3.84992 25.7878 3.78007 27.3727 3.82198C30.0304 3.89182 31.6083 4.41564 33.0617 5.7147L33.7123 6.2874L34.6397 6.022C35.6017 5.74962 37.4081 5.33755 38.3216 5.19088L38.8269 5.10707L38.3216 4.97437C36.972 4.61818 36.4045 4.36675 32.3419 2.32736C29.3659 0.839728 28.2932 0.260039 28.2932 0.155277C28.2932 0.00860841 32.335 0.169245 34.1068 0.378771C36.1 0.623218 38.2593 1.2518 39.955 2.0899C40.9723 2.59276 41.7613 3.22832 42.5434 4.17119L42.9863 4.70897H44.3428H45.7063L46.6683 3.79404C48.4746 2.08291 48.7376 1.94323 51.7552 1.02132C53.6584 0.441629 54.0183 0.385755 57.8733 0.12734C60.8147 -0.0682177 60.9185 -0.0612335 60.4824 0.308929C60.2195 0.532423 58.6346 1.34259 57.9494 1.60101C57.3265 1.83847 56.8974 2.06196 56.0807 2.57879C54.5581 3.54261 52.4888 4.40167 50.4471 4.93945L49.8104 5.10707L50.8001 5.29564C52.1081 5.54009 53.8037 5.96613 54.8696 6.30835C55.3471 6.46201 55.6655 6.53883 55.5824 6.47597C55.3471 6.31534 55.3817 6.08486 55.6862 5.81248C56.6413 4.93945 58.4477 4.12928 59.9357 3.89881C61.0707 3.7242 63.5415 3.73817 64.5658 3.92674C65.7977 4.15722 70.2548 5.47723 70.8777 5.79851C71.1268 5.93121 71.113 6.07787 70.8431 6.16867C70.497 6.27343 68.0124 6.76931 66.4621 7.04169C63.3892 7.57948 61.6867 7.75408 60.5655 7.64233C59.5412 7.54456 58.2677 7.32106 57.5064 7.11852C57.1535 7.02074 56.849 6.94392 56.8213 6.94392C56.7936 6.94392 57.2573 7.14646 57.8456 7.38392C63.3339 9.63283 68.3792 13.3764 72.428 18.2234C72.7117 18.5656 72.7186 18.5726 72.7048 18.3631C72.684 18.0278 72.9401 17.944 74.0059 17.944C75.0095 17.944 75.9438 18.1116 77.0512 18.4818C77.9993 18.8031 78.5461 19.1034 79.6465 19.8926C81.7089 21.3802 82.5741 22.2463 83.7298 23.9504C84.332 24.8374 85.1279 25.7524 85.7923 26.3181C86.0345 26.5206 86.0553 26.6603 85.8338 26.6952C85.7577 26.7022 85.2178 26.5765 84.6296 26.4019C84.0413 26.2273 83.1139 25.9759 82.581 25.8432C81.3906 25.5428 80.7192 25.2914 79.5981 24.7536C77.9716 23.9714 76.456 22.9796 75.404 22.0228C74.8641 21.5269 74.8503 21.5199 75.051 21.8203C75.9853 23.1961 77.6187 26.2273 78.117 27.4914C78.2069 27.7149 78.2969 27.8965 78.3177 27.8965C78.3384 27.8965 78.4146 27.8476 78.4838 27.7848C78.643 27.6311 79.079 27.7149 80.041 28.0711C81.9996 28.8114 83.7783 30.1175 84.7541 31.5562C85.3978 32.4991 87.3633 36.2845 88.2215 38.2401C88.5676 39.0293 88.6368 39.2807 88.5122 39.2807C88.3669 39.2807 85.3009 37.3252 83.5845 36.1309C81.9858 35.0274 81.0584 34.1474 80.304 33.0299C80.124 32.7645 79.9718 32.534 79.9649 32.527C79.951 32.5131 80.0548 32.8902 80.1794 33.3651C80.5739 34.8109 81.0168 36.976 81.2037 38.3798C81.2383 38.6801 81.2522 38.6941 81.4321 38.6661C81.5636 38.6522 81.7989 38.736 82.1588 38.9176C83.9444 39.8534 85.0725 41.0128 85.9653 42.8078C86.6643 44.2256 87.0034 45.4268 87.5294 48.3253C87.7232 49.3659 87.9447 50.4275 88.0208 50.6859C88.1731 51.1818 88.18 51.4402 88.0485 51.4821C87.917 51.524 87.2388 50.9094 85.9445 49.5754C83.4184 46.9773 82.4564 45.6503 81.7851 43.8275L81.5913 43.2967L81.5844 44.2395C81.5844 45.7621 81.3421 49.0307 81.1899 49.6872L81.1483 49.8618L81.3144 49.7081C81.4667 49.5754 81.5013 49.5685 81.7366 49.6453C82.1034 49.778 82.6225 50.1831 83.1277 50.7418C84.4773 52.2015 85.0517 54.8345 84.851 58.5711C84.768 60.1565 84.5673 62.7895 84.5188 62.9502C84.4565 63.1597 82.0965 59.1578 81.3767 57.6352C80.7677 56.3222 80.6916 55.9381 80.6777 54.0872L80.6708 52.7952L80.5047 53.4587C80.2071 54.6739 79.9164 55.7076 79.5981 56.6993C79.2589 57.7679 78.3661 60.1006 78.0478 60.7362C77.7086 61.4137 77.8263 61.2879 78.2623 60.4987C78.726 59.6676 78.8714 59.5349 79.1274 59.7025C79.7572 60.1216 80.7538 62.6149 80.8715 64.0537C80.8923 64.3331 80.8715 64.801 80.83 65.1013C80.6362 66.3445 79.9925 68.761 79.2866 70.8703C78.8437 72.2042 78.7675 72.3858 78.636 72.3858C78.4215 72.3858 77.4456 70.0112 77.1826 68.8239C76.9404 67.7623 76.9404 63.4251 77.1826 62.7686C77.238 62.601 77.2726 62.4683 77.2588 62.4683C77.2449 62.4683 77.0581 62.8035 76.8435 63.2156C75.5562 65.6391 73.9367 68.0347 72.0542 70.2836C71.2376 71.2614 68.9952 73.5452 68.0955 74.3065C67.5072 74.8093 67.4657 74.8652 67.611 74.9001C67.8948 74.97 67.9778 75.2703 68.0055 76.2551C68.047 77.5192 67.9224 78.05 67.3895 78.93C66.7597 79.9777 65.0987 81.7516 63.936 82.6247C63.1885 83.1904 61.6036 84.1891 61.4652 84.1891C61.306 84.1891 61.3614 83.7142 61.6521 82.6037C62.3165 80.0196 62.7317 79.1395 63.9914 77.6379C64.3512 77.2119 64.3651 77.184 64.1436 77.3306C63.5969 77.6868 63.1401 77.9522 61.7213 78.7345L60.2333 79.5516L60.1779 79.9846C59.998 81.4653 58.7937 82.8831 57.0081 83.7282C56.3922 84.0215 52.7241 85.1809 52.1012 85.2787C51.8659 85.3206 51.8244 85.3066 51.8244 85.2018C51.8244 84.8806 53.7069 82.4221 54.835 81.2837C55.8939 80.2011 56.9805 79.6005 58.4408 79.2653L59.1605 79.1046L60.7108 78.0291C61.5621 77.4424 62.2542 76.9535 62.2404 76.9395C62.2334 76.9325 62.0743 76.9535 61.8874 76.9954C61.1607 77.1421 59.8526 77.163 59.0637 77.0303C57.7279 76.8208 55.2087 76.1014 54.3367 75.6894C53.4439 75.2563 53.6999 75.1516 56.3299 74.8652C57.2227 74.7744 58.3231 74.6417 58.7799 74.5789C60.5793 74.3414 64.2959 74.3833 65.0779 74.6627C65.4101 74.7744 65.3825 74.7954 66.6905 73.6849C67.8463 72.7141 68.22 72.3649 68.0539 72.4208C66.5521 72.9585 64.3236 73.21 62.1642 73.0843C60.9808 73.0214 60.6139 72.9376 60.6139 72.735C60.6139 72.5814 60.7731 72.4766 61.4791 72.1763C61.7836 72.0506 62.8909 71.5407 63.936 71.0519C67.2719 69.5014 68.4623 69.1382 70.6977 68.9915L71.4175 68.9426L71.6805 68.6214C72.3795 67.7623 73.9021 65.681 73.9021 65.5762C73.9021 65.5553 73.7568 65.6461 73.5768 65.7788C73.0509 66.1559 71.8535 66.7705 70.9884 67.0988C68.8222 67.9299 66.3583 68.4956 66.3583 68.1674C66.3583 68.1115 66.6767 67.7832 67.0712 67.441C68.1785 66.4702 71.4106 63.7813 72.0127 63.3343C73.3831 62.3076 75.3417 61.1692 76.1099 60.9597L76.5528 60.834L76.7951 60.3032C77.3834 58.9971 78.3523 56.406 78.1723 56.6015C77.2519 57.6073 76.9681 57.9006 76.5113 58.3197C76.2206 58.599 75.7223 58.9971 75.404 59.2067C73.9367 60.1984 71.1199 61.6372 70.9538 61.4765C70.8846 61.3997 71.1199 61.0365 71.6597 60.4079C72.684 59.2067 73.5492 57.9495 74.3728 56.4619C74.6219 56.0219 75.0233 55.3933 75.2725 55.072C76.2137 53.8498 78.0616 52.1526 79.1274 51.524C79.3766 51.3774 79.5911 51.2097 79.6119 51.1539C79.6811 50.9234 79.9995 48.5278 80.0964 47.4523C80.1933 46.3976 80.2279 45.2662 80.1517 45.6014C79.9164 46.684 79.2036 48.2624 78.6153 49.0097C78.0616 49.7081 74.2066 53.6472 74.1374 53.5844C74.0267 53.4656 75.6254 48.3392 76.3245 46.5792C77.1826 44.4141 78.3869 42.4306 79.6811 41.0338L80.1102 40.5728L80.0548 40.0141C79.9026 38.5195 79.5704 36.4312 79.3212 35.3696C79.2935 35.2578 79.2451 35.4534 79.1897 35.9213C78.989 37.5487 78.5876 38.6033 77.2657 40.915C76.0407 43.0732 75.2033 44.3373 75.051 44.2884C74.9264 44.2465 74.9264 43.6179 75.0441 41.6204C75.2171 38.6242 75.4178 36.1658 75.5701 35.1251C75.7708 33.7912 76.6705 31.6051 77.4526 30.5645L77.7778 30.1175L77.3903 29.1676C76.7951 27.7079 75.0233 24.139 75.2448 24.8374C75.2656 24.9073 75.3209 25.3124 75.3624 25.7384C75.4801 26.8559 75.404 28.9721 75.2171 29.9918C74.6634 33.0299 73.916 35.1321 73.5353 34.748C73.4938 34.7061 73.4246 34.315 73.3761 33.868C73.2862 33.0927 73.1477 32.4153 72.421 29.2025C71.9297 27.0235 71.812 26.2482 71.7774 24.9422C71.7359 23.5314 71.8328 22.8469 72.2896 21.5199L72.5872 20.619L72.2273 20.158C71.7566 19.5504 70.5662 18.1396 70.0402 17.5599L69.625 17.1059L69.7911 17.8393C70.1233 19.3059 70.1994 20.165 70.1856 22.3441C70.1856 23.4685 70.1371 24.7885 70.0887 25.3124L69.9918 26.2552L69.3274 24.9631C68.3723 23.1123 67.6594 21.8203 67.1473 21.038C65.7424 18.8659 65.4309 17.7345 65.2786 14.2284L65.2302 13.1668L64.2267 12.4544C63.2231 11.7421 61.3614 10.5617 61.3199 10.6106C61.306 10.6246 61.4029 10.7852 61.5344 10.9738C62.3096 12.0703 63.1332 13.991 63.5553 15.6672C63.7353 16.4145 64.0952 18.5028 64.0606 18.6215C64.026 18.7263 60.3371 15.1224 59.2851 13.956C57.1535 11.5884 56.496 10.457 56.2261 8.69695L56.143 8.17313L55.1395 7.83789C54.2675 7.55154 52.032 6.92296 52.032 6.97185C52.032 6.97884 52.2535 7.17439 52.5303 7.39789C53.6792 8.36869 55.1949 10.3592 55.8662 11.7979C56.0669 12.224 56.3645 13.2087 56.3091 13.2646C56.2953 13.2786 55.8662 13.083 55.354 12.8316C54.3505 12.3497 53.6653 12.0633 52.1358 11.4836C50.2118 10.7643 49.3536 10.2055 48.3155 9.01822C47.3534 7.92869 46.7236 6.84614 46.7928 6.4201L46.8275 6.19661L46.4122 6.14772C46.1769 6.12676 45.1595 6.10581 44.1421 6.10581C42.7441 6.10581 42.2735 6.12676 42.225 6.19661C42.1904 6.23851 42.0243 6.60169 41.8651 6.99979C41.353 8.22901 40.7855 9.04616 39.9827 9.70966C39.0483 10.4779 38.2386 10.89 35.837 11.8049C35.1726 12.0563 34.1345 12.5103 33.5393 12.8106C32.9371 13.111 32.4458 13.3345 32.4458 13.2995C32.4458 13.1249 32.778 12.21 33.0133 11.7281C33.7192 10.3243 35.5533 8.04043 36.6814 7.16741C36.8682 7.02773 36.9928 6.90201 36.9582 6.88804C36.8198 6.84614 33.8853 7.64932 32.8956 8.0125L32.6188 8.11028L32.5703 8.62012C32.4112 10.1986 31.7814 11.3928 30.1895 13.1598C29.3798 14.0608 24.8189 18.7542 24.7843 18.7263C24.722 18.6564 25.0542 16.8126 25.3103 15.7929C25.9124 13.4252 26.5076 12.0075 27.4835 10.6525L27.7534 10.2824L27.4212 10.4779C25.4418 11.6303 23.5454 12.9294 23.5593 13.1319C23.5662 13.2087 23.6077 13.537 23.6631 13.8792C23.933 15.6951 23.061 18.831 21.6145 21.1917C20.9155 22.3371 20.2857 23.4615 19.6005 24.7955C19.2337 25.5009 18.9153 26.0806 18.8877 26.0806C18.8115 26.0806 18.7423 24.0761 18.7423 21.9599C18.7423 19.0266 18.8807 17.9021 19.3721 16.9034L19.5798 16.4773L19.2268 16.8266C18.687 17.3504 17.3097 18.9148 16.6799 19.711L16.1262 20.4094L16.3269 20.8145C16.6937 21.5758 16.9913 23.0565 17.0605 24.4393C17.1159 25.6895 16.8806 27.3308 16.2508 30.0616C15.6556 32.6178 15.3511 34.1823 15.3511 34.6642C15.3511 34.9715 15.2542 35.1601 15.1434 35.0483C15.005 34.9086 14.5344 33.7283 14.3198 32.967C14.0707 32.0731 13.69 30.327 13.4686 29.0489C13.254 27.7708 13.2609 26.5835 13.5032 25.2355C13.607 24.6698 13.7039 24.153 13.7316 24.0831C13.8146 23.8107 13.0464 25.1727 12.5135 26.2273C11.9252 27.4006 11.5515 28.2178 11.0947 29.3632L10.7971 30.0895L11.0324 30.2711C11.8006 30.8508 12.9149 33.1346 13.171 34.6572C13.4824 36.501 14.0015 43.8833 13.8285 44.0579C13.6416 44.2465 12.6519 42.8497 11.4684 40.7125C10.1258 38.282 9.7105 36.9829 9.61361 34.9156L9.57209 33.9378L9.4129 34.6013C9.05302 36.089 8.71389 38.0306 8.56855 39.4204C8.52703 39.8255 8.47858 40.2446 8.46474 40.3563C8.43705 40.5309 8.44397 40.5449 8.53395 40.4681C8.68621 40.3423 8.83847 40.503 9.77971 41.7601C10.7971 43.129 11.683 44.463 11.9598 45.0497C12.1674 45.4967 12.9011 47.4872 13.0533 48.011C13.0879 48.1437 13.254 48.6605 13.4063 49.1564C13.8215 50.4624 14.4998 52.7463 14.5759 53.0955C14.6174 53.2561 14.6174 53.3888 14.5898 53.3888C14.4167 53.3888 11.3508 50.3577 10.631 49.4777C9.57901 48.1926 8.85231 46.6421 8.46474 44.8471C8.39553 44.5468 8.33324 44.3163 8.3194 44.3303C8.27095 44.3722 8.43013 47.1729 8.52703 48.1158C8.70697 49.8269 8.92844 51.1539 9.03225 51.1539C9.20528 51.1539 9.64822 51.4193 10.3403 51.9431C12.0429 53.2282 13.2402 54.618 15.3857 57.8238C15.9463 58.6689 16.7629 59.8352 17.199 60.4149C17.628 60.9946 17.981 61.5184 17.981 61.5813C17.981 61.7349 17.7595 61.6581 16.8944 61.2181C15.2957 60.4079 12.9357 58.9273 12.1328 58.2359C11.6276 57.7958 10.8732 56.9298 10.3818 56.2244C10.2227 55.9939 10.0912 55.8263 10.0912 55.8473C10.0912 56.0707 11.1362 58.8714 11.6553 60.0657L11.9667 60.7641L12.3681 60.8479C13.1018 61.0016 14.7766 61.9026 16.3892 63.0061C17.5242 63.7883 18.2371 64.347 19.3306 65.3318C19.8289 65.7788 20.6387 66.4702 21.13 66.8823C22.2097 67.7693 22.4243 67.9788 22.3966 68.1185C22.362 68.2931 21.6906 68.2442 20.6456 67.9928C18.4101 67.455 16.5761 66.6518 15.0465 65.5483C14.7489 65.3318 14.4375 65.1083 14.3614 65.0524C14.0638 64.8359 16.2369 67.9299 16.9706 68.7541C17.1505 68.9566 17.1643 68.9636 17.8149 68.9636C19.6144 68.9636 21.6353 69.5014 23.8984 70.5839C24.549 70.8912 25.7255 71.436 26.5214 71.7992C27.3104 72.1554 28.0094 72.4906 28.0579 72.5325C28.224 72.6722 28.1686 72.8538 27.9333 72.9446C27.3173 73.1611 24.0437 73.1471 22.618 72.9166C21.9605 72.8119 20.9709 72.5465 20.4864 72.3509L20.2303 72.2461L20.5764 72.5604C21.0608 73.0074 22.362 74.1109 22.8603 74.4951L23.2755 74.8233L23.8292 74.6627C25.1926 74.2646 27.172 74.2506 30.1272 74.6208C32.4319 74.9071 33.6915 75.0398 34.1691 75.0468C34.6051 75.0468 35.0134 75.1655 35.0619 75.3052C35.1242 75.5148 32.7849 76.4087 31.2969 76.744C30.8816 76.8417 30.238 76.9535 29.8643 77.0024C29.0061 77.1071 26.9713 77.0443 26.3899 76.8976C26.1616 76.8417 25.9678 76.8068 25.9608 76.8138C25.9539 76.8208 26.1546 76.9884 26.4107 77.184C26.6668 77.3795 27.352 77.9033 27.9402 78.3503C28.5216 78.7973 29.0268 79.1395 29.0614 79.1186C29.103 79.0976 29.4559 79.1116 29.8504 79.1605C31.4768 79.3351 32.6742 80.0126 34.349 81.7097C36.0723 83.4558 37.2004 85.0342 36.8682 85.2437C36.7506 85.3206 36.7644 85.3206 36.4253 85.1948Z" fill="var(--fill-0, white)" fill-opacity="0.2"/>
<path id="Vector_2" d="M70.4071 79.2997C70.4209 78.7829 70.4555 77.6654 70.4763 76.8203C70.5247 74.9486 70.6216 73.859 70.7946 73.1676C70.9607 72.5111 71.4383 71.4844 71.9435 70.7161C72.518 69.8361 74.1859 68.1948 74.5043 68.1948C75.0303 68.1948 75.3625 71.4006 75.0026 73.0489C74.7188 74.3689 74.0475 75.6749 72.8778 77.2045C72.4349 77.7772 70.9538 79.5861 70.5593 80.0261L70.3655 80.2426L70.4071 79.2997Z" fill="var(--fill-0, white)" fill-opacity="0.2"/>
<path id="Vector_3" d="M78.1934 15.3458C73.8955 15.0385 72.6013 14.8778 71.0579 14.4867C69.0716 13.9839 67.5075 13.1807 65.7426 11.7769C65.0782 11.2461 64.8568 10.8759 65.009 10.5756C65.272 10.0657 67.4383 9.5908 69.0162 9.69556C70.3589 9.79334 72.186 10.2822 73.5287 10.9178C75.0721 11.6511 79.8267 14.7801 79.9721 15.1642C79.9928 15.2201 79.9721 15.2969 79.9167 15.3318C79.8267 15.3877 78.8855 15.3947 78.1934 15.3458Z" fill="var(--fill-0, white)" fill-opacity="0.2"/>
</g>
</svg>
