<svg preserveAspectRatio="none" width="100%" height="100%" overflow="visible" style="display: block;" viewBox="0 0 1505.4 724.824" fill="none" xmlns="http://www.w3.org/2000/svg">
<g id="Vector">
<path d="M854.897 0V643.977C821.802 637.535 787.653 634.148 752.699 634.148C717.744 634.148 683.595 637.563 650.529 643.977V0C403.877 21.3224 179.103 119.078 0 269.501L455.323 724.824H1050.07L1505.4 269.501C1326.32 119.106 1101.55 21.3224 854.897 0Z" fill="var(--fill-0, white)" fill-opacity="0.05"/>
<path d="M855.396 0.545898C1101.54 21.939 1325.86 119.511 1504.66 269.533L1049.87 724.324H455.53L0.739258 269.533C179.566 119.483 403.888 21.9391 650.028 0.545898V644.583L650.624 644.468C683.66 638.06 717.778 634.648 752.699 634.648C787.621 634.648 821.738 638.033 854.801 644.468L855.396 644.583V0.545898Z" stroke="var(--stroke-0, white)" stroke-opacity="0.1"/>
</g>
</svg>
