<svg preserveAspectRatio="none" width="100%" height="100%" overflow="visible" style="display: block;" viewBox="0 0 26.2813 23.3382" fill="none" xmlns="http://www.w3.org/2000/svg">
<path id="Icon" d="M13.1406 8.75483V13.4215M13.1406 18.0882H13.1523M11.5252 2.79517L1.92947 19.3696C1.39723 20.2889 1.13111 20.7485 1.17044 21.1258C1.20475 21.4549 1.37715 21.7539 1.64473 21.9484C1.95152 22.1715 2.48266 22.1715 3.54493 22.1715H22.7363C23.7986 22.1715 24.3297 22.1715 24.6365 21.9484C24.9041 21.7539 25.0765 21.4549 25.1108 21.1258C25.1502 20.7485 24.884 20.2889 24.3518 19.3696L14.7561 2.79517C14.2258 1.87914 13.9606 1.42113 13.6146 1.2673C13.3129 1.13312 12.9684 1.13312 12.6666 1.2673C12.3207 1.42113 12.0555 1.87914 11.5252 2.79517Z" stroke="var(--stroke-0, #F34141)" stroke-width="2.33333" stroke-linecap="round" stroke-linejoin="round"/>
</svg>
