<svg preserveAspectRatio="none" width="100%" height="100%" overflow="visible" style="display: block;" viewBox="0 0 39.9923 43.0002" fill="none" xmlns="http://www.w3.org/2000/svg">
<g id="Group">
<path id="Vector" d="M27.498 23C28.0889 23 28.6741 23.1164 29.2201 23.3425C29.766 23.5687 30.2621 23.9002 30.68 24.318C31.0978 24.7359 31.4293 25.232 31.6555 25.7779C31.8816 26.3239 31.998 26.9091 31.998 27.5V29.31C31.998 30.3908 31.7644 31.4588 31.3132 32.4408C30.8621 33.4229 30.204 34.2959 29.384 35C26.252 37.688 21.772 39.002 15.992 39.002C10.212 39.002 5.736 37.688 2.61 35.002C1.79103 34.2978 1.13384 33.4249 0.683375 32.4432C0.232911 31.4615 -0.0001954 30.3941 1.22898e-07 29.314V27.5C1.22898e-07 26.3065 0.474105 25.1619 1.31802 24.318C2.16193 23.4741 3.30653 23 4.5 23H27.498Z" fill="url(#paint0_radial_0_760)"/>
<path id="Vector_2" d="M27.498 23C28.0889 23 28.6741 23.1164 29.2201 23.3425C29.766 23.5687 30.2621 23.9002 30.68 24.318C31.0978 24.7359 31.4293 25.232 31.6555 25.7779C31.8816 26.3239 31.998 26.9091 31.998 27.5V29.31C31.998 30.3908 31.7644 31.4588 31.3132 32.4408C30.8621 33.4229 30.204 34.2959 29.384 35C26.252 37.688 21.772 39.002 15.992 39.002C10.212 39.002 5.736 37.688 2.61 35.002C1.79103 34.2978 1.13384 33.4249 0.683375 32.4432C0.232911 31.4615 -0.0001954 30.3941 1.22898e-07 29.314V27.5C1.22898e-07 26.3065 0.474105 25.1619 1.31802 24.318C2.16193 23.4741 3.30653 23 4.5 23H27.498Z" fill="url(#paint1_linear_0_760)"/>
<path id="Vector_3" d="M27.498 23C28.0889 23 28.6741 23.1164 29.2201 23.3425C29.766 23.5687 30.2621 23.9002 30.68 24.318C31.0978 24.7359 31.4293 25.232 31.6555 25.7779C31.8816 26.3239 31.998 26.9091 31.998 27.5V29.31C31.998 30.3908 31.7644 31.4588 31.3132 32.4408C30.8621 33.4229 30.204 34.2959 29.384 35C26.252 37.688 21.772 39.002 15.992 39.002C10.212 39.002 5.736 37.688 2.61 35.002C1.79103 34.2978 1.13384 33.4249 0.683375 32.4432C0.232911 31.4615 -0.0001954 30.3941 1.22898e-07 29.314V27.5C1.22898e-07 26.3065 0.474105 25.1619 1.31802 24.318C2.16193 23.4741 3.30653 23 4.5 23H27.498Z" fill="url(#paint2_radial_0_760)"/>
<path id="Vector_4" d="M27.498 23C28.0889 23 28.6741 23.1164 29.2201 23.3425C29.766 23.5687 30.2621 23.9002 30.68 24.318C31.0978 24.7359 31.4293 25.232 31.6555 25.7779C31.8816 26.3239 31.998 26.9091 31.998 27.5V29.31C31.998 30.3908 31.7644 31.4588 31.3132 32.4408C30.8621 33.4229 30.204 34.2959 29.384 35C26.252 37.688 21.772 39.002 15.992 39.002C10.212 39.002 5.736 37.688 2.61 35.002C1.79103 34.2978 1.13384 33.4249 0.683375 32.4432C0.232911 31.4615 -0.0001954 30.3941 1.22898e-07 29.314V27.5C1.22898e-07 26.3065 0.474105 25.1619 1.31802 24.318C2.16193 23.4741 3.30653 23 4.5 23H27.498Z" fill="url(#paint3_radial_0_760)"/>
<path id="Vector_5" d="M27.498 23C28.0889 23 28.6741 23.1164 29.2201 23.3425C29.766 23.5687 30.2621 23.9002 30.68 24.318C31.0978 24.7359 31.4293 25.232 31.6555 25.7779C31.8816 26.3239 31.998 26.9091 31.998 27.5V29.31C31.998 30.3908 31.7644 31.4588 31.3132 32.4408C30.8621 33.4229 30.204 34.2959 29.384 35C26.252 37.688 21.772 39.002 15.992 39.002C10.212 39.002 5.736 37.688 2.61 35.002C1.79103 34.2978 1.13384 33.4249 0.683375 32.4432C0.232911 31.4615 -0.0001954 30.3941 1.22898e-07 29.314V27.5C1.22898e-07 26.3065 0.474105 25.1619 1.31802 24.318C2.16193 23.4741 3.30653 23 4.5 23H27.498Z" fill="var(--fill-0, #D8B4FE)"/>
<path id="Vector_6" d="M15.992 0L15.788 0.0139999C15.4289 0.0632966 15.0998 0.240961 14.8615 0.514139C14.6233 0.787316 14.492 1.13752 14.492 1.5L14.478 5H17.478L17.492 1.5L17.478 1.296C17.4287 0.936893 17.251 0.607783 16.9779 0.369534C16.7047 0.131285 16.3545 1.52858e-05 15.992 0Z" fill="url(#paint4_linear_0_760)"/>
<path id="Vector_7" d="M27.992 7.5C27.992 6.30653 27.5179 5.16193 26.674 4.31802C25.8301 3.47411 24.6855 3 23.492 3H8.492C7.29853 3 6.15393 3.47411 5.31002 4.31802C4.46611 5.16193 3.992 6.30653 3.992 7.5V14.5C3.992 15.6935 4.46611 16.8381 5.31002 17.682C6.15393 18.5259 7.29853 19 8.492 19H23.492C24.6855 19 25.8301 18.5259 26.674 17.682C27.5179 16.8381 27.992 15.6935 27.992 14.5V7.5Z" fill="var(--fill-0, #D8B4FE)"/>
<path id="Vector_8" d="M20.476 8C20.1419 7.99055 19.8093 8.04819 19.4978 8.16953C19.1863 8.29086 18.9024 8.47342 18.6627 8.70641C18.423 8.9394 18.2325 9.21808 18.1024 9.52598C17.9723 9.83388 17.9053 10.1647 17.9053 10.499C17.9053 10.8333 17.9723 11.1641 18.1024 11.472C18.2325 11.7799 18.423 12.0586 18.6627 12.2916C18.9024 12.5246 19.1863 12.7071 19.4978 12.8285C19.8093 12.9498 20.1419 13.0075 20.476 12.998C21.1265 12.9796 21.7443 12.7082 22.1979 12.2416C22.6515 11.7749 22.9053 11.1498 22.9053 10.499C22.9053 9.8482 22.6515 9.22305 22.1979 8.75641C21.7443 8.28976 21.1265 8.01841 20.476 8Z" fill="url(#paint5_linear_0_760)"/>
<path id="Vector_9" d="M11.492 8C11.1579 7.99055 10.8253 8.04819 10.5138 8.16953C10.2023 8.29086 9.91838 8.47342 9.67871 8.70641C9.43903 8.9394 9.24852 9.21808 9.11842 9.52598C8.98833 9.83388 8.9213 10.1647 8.9213 10.499C8.9213 10.8333 8.98833 11.1641 9.11842 11.472C9.24852 11.7799 9.43903 12.0586 9.67871 12.2916C9.91838 12.5246 10.2023 12.7071 10.5138 12.8285C10.8253 12.9498 11.1579 13.0075 11.492 12.998C12.1425 12.9796 12.7603 12.7082 13.2139 12.2416C13.6675 11.7749 13.9213 11.1498 13.9213 10.499C13.9213 9.8482 13.6675 9.22305 13.2139 8.75641C12.7603 8.28976 12.1425 8.01841 11.492 8Z" fill="url(#paint6_linear_0_760)"/>
<path id="Vector_10" d="M38.028 36.93L39.558 37.426L39.588 37.434C39.6762 37.4651 39.756 37.5163 39.8212 37.5834C39.8863 37.6506 39.935 37.7319 39.9635 37.821C39.992 37.9101 39.9995 38.0046 39.9853 38.0971C39.9712 38.1895 39.9358 38.2775 39.882 38.354C39.8094 38.4563 39.7066 38.5332 39.588 38.574L38.058 39.07C37.5924 39.2249 37.1693 39.4861 36.8221 39.8329C36.475 40.1797 36.2134 40.6025 36.058 41.068L35.562 42.596C35.5206 42.7141 35.4435 42.8165 35.3414 42.8889C35.2393 42.9613 35.1172 43.0002 34.992 43.0002C34.8668 43.0002 34.7447 42.9613 34.6426 42.8889C34.5405 42.8165 34.4634 42.7141 34.422 42.596L33.924 41.068C33.7696 40.6017 33.5087 40.1777 33.1619 39.8298C32.815 39.482 32.3919 39.2198 31.926 39.064L30.396 38.566C30.3078 38.5349 30.228 38.4837 30.1628 38.4166C30.0977 38.3494 30.049 38.2681 30.0205 38.179C29.992 38.0899 29.9845 37.9954 29.9987 37.9029C30.0128 37.8105 30.0482 37.7225 30.102 37.646C30.1746 37.5437 30.2774 37.4668 30.396 37.426L31.926 36.93C32.3855 36.7711 32.8021 36.5083 33.1434 36.1621C33.4848 35.816 33.7416 35.3957 33.894 34.934L34.392 33.404C34.4334 33.2859 34.5105 33.1835 34.6126 33.1111C34.7147 33.0387 34.8368 32.9998 34.962 32.9998C35.0872 32.9998 35.2093 33.0387 35.3114 33.1111C35.4135 33.1835 35.4906 33.2859 35.532 33.404L36.03 34.932C36.1851 35.3972 36.4465 35.82 36.7932 36.1668C37.14 36.5135 37.5628 36.7748 38.028 36.93Z" fill="url(#paint7_linear_0_760)"/>
<path id="Vector_11" d="M23.7 29.292C24.3232 29.9184 24.7922 30.6812 25.07 31.52L25.966 34.274C26.0409 34.4863 26.1798 34.6701 26.3636 34.8001C26.5473 34.9301 26.7669 35 26.992 35C27.2171 35 27.4367 34.9301 27.6204 34.8001C27.8042 34.6701 27.9431 34.4863 28.018 34.274L28.914 31.52C29.1933 30.6831 29.6636 29.9228 30.2878 29.2993C30.912 28.6758 31.6728 28.2063 32.51 27.928L35.266 27.032C35.4767 26.9558 35.6588 26.8165 35.7875 26.6331C35.9162 26.4497 35.9852 26.2311 35.9852 26.007C35.9852 25.7829 35.9162 25.5643 35.7875 25.3809C35.6588 25.1975 35.4767 25.0582 35.266 24.982L35.21 24.968L32.454 24.072C31.6168 23.7937 30.856 23.3242 30.2318 22.7007C29.6076 22.0772 29.1373 21.3169 28.858 20.48L27.964 17.726C27.8895 17.513 27.7507 17.3285 27.5667 17.1979C27.3827 17.0673 27.1626 16.9972 26.937 16.9972C26.7114 16.9972 26.4913 17.0673 26.3073 17.1979C26.1233 17.3285 25.9845 17.513 25.91 17.726L25.014 20.48L24.992 20.548C24.7118 21.364 24.2493 22.1055 23.6397 22.7161C23.0302 23.3267 22.2895 23.7904 21.474 24.072L18.718 24.968C18.5073 25.0442 18.3252 25.1835 18.1965 25.3669C18.0678 25.5503 17.9988 25.7689 17.9988 25.993C17.9988 26.2171 18.0678 26.4357 18.1965 26.6191C18.3252 26.8025 18.5073 26.9418 18.718 27.018L21.474 27.914C22.314 28.194 23.074 28.666 23.7 29.292Z" fill="url(#paint8_linear_0_760)"/>
</g>
<defs>
<radialGradient id="paint0_radial_0_760" cx="0" cy="0" r="1" gradientUnits="userSpaceOnUse" gradientTransform="translate(-7.38514 18.0761) rotate(30.408) scale(44.5054 70.89)">
<stop stop-color="#F08AF4"/>
<stop offset="0.535" stop-color="#9C6CFE"/>
<stop offset="1" stop-color="#4E44DB"/>
</radialGradient>
<linearGradient id="paint1_linear_0_760" x1="15.998" y1="21.094" x2="23.238" y2="48.146" gradientUnits="userSpaceOnUse">
<stop stop-color="#885EDB" stop-opacity="0"/>
<stop offset="1" stop-color="#E362F8"/>
</linearGradient>
<radialGradient id="paint2_radial_0_760" cx="0" cy="0" r="1" gradientUnits="userSpaceOnUse" gradientTransform="translate(27.076 30.386) rotate(-90) scale(7.38568 4.19218)">
<stop stop-color="#4E44DB"/>
<stop offset="1" stop-color="#4E44DB" stop-opacity="0"/>
</radialGradient>
<radialGradient id="paint3_radial_0_760" cx="0" cy="0" r="1" gradientUnits="userSpaceOnUse" gradientTransform="translate(25.8448 27.924) rotate(-134.995) scale(6.96268 5.222)">
<stop stop-color="#4E44DB"/>
<stop offset="1" stop-color="#4E44DB" stop-opacity="0"/>
</radialGradient>
<linearGradient id="paint4_linear_0_760" x1="14.478" y1="2.5" x2="17.492" y2="2.5" gradientUnits="userSpaceOnUse">
<stop stop-color="#4C2C97"/>
<stop offset="0.191822" stop-color="#6941C6"/>
<stop offset="0.520202" stop-color="#5A57D6"/>
<stop offset="0.992958" stop-color="#3B82F6"/>
</linearGradient>
<linearGradient id="paint5_linear_0_760" x1="19.162" y1="8.192" x2="22.95" y2="14.73" gradientUnits="userSpaceOnUse">
<stop stop-color="#FDFDFD"/>
<stop offset="1" stop-color="#F9DCFA"/>
</linearGradient>
<linearGradient id="paint6_linear_0_760" x1="10.176" y1="8.192" x2="13.964" y2="14.73" gradientUnits="userSpaceOnUse">
<stop stop-color="#FDFDFD"/>
<stop offset="1" stop-color="#F9DCFA"/>
</linearGradient>
<linearGradient id="paint7_linear_0_760" x1="29.9917" y1="38" x2="39.9923" y2="38" gradientUnits="userSpaceOnUse">
<stop stop-color="#4C2C97"/>
<stop offset="0.191822" stop-color="#6941C6"/>
<stop offset="0.520202" stop-color="#5A57D6"/>
<stop offset="0.992958" stop-color="#3B82F6"/>
</linearGradient>
<linearGradient id="paint8_linear_0_760" x1="17.9988" y1="25.9986" x2="35.9852" y2="25.9986" gradientUnits="userSpaceOnUse">
<stop stop-color="#4C2C97"/>
<stop offset="0.191822" stop-color="#6941C6"/>
<stop offset="0.520202" stop-color="#5A57D6"/>
<stop offset="0.992958" stop-color="#3B82F6"/>
</linearGradient>
</defs>
</svg>
