<svg preserveAspectRatio="none" width="100%" height="100%" overflow="visible" style="display: block;" viewBox="0 0 14.3856 14.3856" fill="none" xmlns="http://www.w3.org/2000/svg">
<path id="Icon" d="M11.0834 5.96895L8.41669 3.30229M0.750005 13.6356L3.00625 13.3849C3.28191 13.3543 3.41974 13.339 3.54857 13.2973C3.66287 13.2603 3.77164 13.208 3.87193 13.1419C3.98497 13.0673 4.08304 12.9693 4.27916 12.7731L13.0834 3.96895C13.8197 3.23257 13.8197 2.03867 13.0834 1.30228C12.347 0.565906 11.1531 0.565905 10.4167 1.30228L1.61249 10.1065C1.41637 10.3026 1.31831 10.4007 1.24376 10.5137C1.17763 10.614 1.12535 10.7228 1.08835 10.8371C1.04664 10.9659 1.03133 11.1037 1.0007 11.3794L0.750005 13.6356Z" stroke="var(--stroke-0, #475367)" stroke-width="1.5" stroke-linecap="round" stroke-linejoin="round"/>
</svg>
