<svg preserveAspectRatio="none" width="100%" height="100%" overflow="visible" style="display: block;" viewBox="0 0 14.8333 14.8333" fill="none" xmlns="http://www.w3.org/2000/svg">
<path id="Icon" d="M6.41667 0.751864C5.96663 0.757963 5.69647 0.784017 5.47801 0.895325C5.22713 1.02316 5.02316 1.22713 4.89533 1.47801C4.78402 1.69647 4.75796 1.96663 4.75187 2.41667M12.4167 0.751864C12.8667 0.757963 13.1369 0.784017 13.3553 0.895325C13.6062 1.02316 13.8102 1.22713 13.938 1.47801C14.0493 1.69646 14.0754 1.96663 14.0815 2.41666M14.0815 8.41666C14.0754 8.8667 14.0493 9.13687 13.938 9.35532C13.8102 9.6062 13.6062 9.81018 13.3553 9.93801C13.1369 10.0493 12.8667 10.0754 12.4167 10.0815M14.0833 4.75V6.08333M8.75004 0.75H10.0833M2.88333 14.0833H7.95C8.69674 14.0833 9.07011 14.0833 9.35532 13.938C9.6062 13.8102 9.81018 13.6062 9.93801 13.3553C10.0833 13.0701 10.0833 12.6967 10.0833 11.95V6.88333C10.0833 6.1366 10.0833 5.76323 9.93801 5.47801C9.81018 5.22713 9.6062 5.02316 9.35532 4.89532C9.07011 4.75 8.69674 4.75 7.95 4.75H2.88333C2.1366 4.75 1.76323 4.75 1.47801 4.89532C1.22713 5.02316 1.02316 5.22713 0.895326 5.47801C0.750002 5.76323 0.750002 6.1366 0.750002 6.88333V11.95C0.750002 12.6967 0.750002 13.0701 0.895326 13.3553C1.02316 13.6062 1.22713 13.8102 1.47801 13.938C1.76323 14.0833 2.1366 14.0833 2.88333 14.0833Z" stroke="var(--stroke-0, #475367)" stroke-width="1.5" stroke-linecap="round" stroke-linejoin="round"/>
</svg>
