<svg preserveAspectRatio="none" width="100%" height="100%" overflow="visible" style="display: block;" viewBox="0 0 15 16.5" fill="none" xmlns="http://www.w3.org/2000/svg">
<path id="Icon" d="M14.25 6.75H0.750001M10.5 0.75V3.75M4.5 0.75V3.75M4.35 15.75H10.65C11.9101 15.75 12.5402 15.75 13.0215 15.5048C13.4448 15.289 13.7891 14.9448 14.0048 14.5215C14.25 14.0402 14.25 13.4101 14.25 12.15V5.85C14.25 4.58988 14.25 3.95982 14.0048 3.47852C13.7891 3.05516 13.4448 2.71095 13.0215 2.49524C12.5402 2.25 11.9101 2.25 10.65 2.25H4.35C3.08988 2.25 2.45982 2.25 1.97852 2.49524C1.55516 2.71095 1.21095 3.05516 0.995236 3.47852C0.750001 3.95982 0.750001 4.58988 0.750001 5.85V12.15C0.750001 13.4101 0.750001 14.0402 0.995236 14.5215C1.21095 14.9448 1.55516 15.289 1.97852 15.5048C2.45982 15.75 3.08988 15.75 4.35 15.75Z" stroke="var(--stroke-0, #98A2B3)" stroke-width="1.5" stroke-linecap="round" stroke-linejoin="round"/>
</svg>
