<svg preserveAspectRatio="none" width="100%" height="100%" overflow="visible" style="display: block;" viewBox="0 0 13.5 14.8333" fill="none" xmlns="http://www.w3.org/2000/svg">
<path id="Icon" d="M12.75 6.08333H0.750001M9.41667 0.75V3.41667M4.08333 0.75V3.41667M4.75 10.0833L6.08333 11.4167L9.08333 8.41667M3.95 14.0833H9.55C10.6701 14.0833 11.2302 14.0833 11.658 13.8653C12.0343 13.6736 12.3403 13.3676 12.532 12.9913C12.75 12.5635 12.75 12.0034 12.75 10.8833V5.28333C12.75 4.16323 12.75 3.60318 12.532 3.17535C12.3403 2.79903 12.0343 2.49307 11.658 2.30132C11.2302 2.08333 10.6701 2.08333 9.55 2.08333H3.95C2.8299 2.08333 2.26984 2.08333 1.84202 2.30132C1.4657 2.49307 1.15973 2.79903 0.967988 3.17535C0.750001 3.60318 0.750001 4.16323 0.750001 5.28333V10.8833C0.750001 12.0034 0.750001 12.5635 0.967988 12.9913C1.15973 13.3676 1.4657 13.6736 1.84202 13.8653C2.26984 14.0833 2.8299 14.0833 3.95 14.0833Z" stroke="var(--stroke-0, #6941C6)" stroke-width="1.5" stroke-linecap="round" stroke-linejoin="round"/>
</svg>
