<svg preserveAspectRatio="none" width="100%" height="100%" overflow="visible" style="display: block;" viewBox="0 0 22 22" fill="none" xmlns="http://www.w3.org/2000/svg">
<g id="Icon">
<path d="M11 21C16.5228 21 21 16.5228 21 11C21 5.47715 16.5228 1 11 1C5.47715 1 1 5.47715 1 11C1 16.5228 5.47715 21 11 21Z" fill="var(--fill-0, #F0ECF9)"/>
<path d="M21 11C21 16.5228 16.5228 21 11 21M21 11C21 5.47715 16.5228 1 11 1M21 11H17M11 21C5.47715 21 1 16.5228 1 11M11 21V17M1 11C1 5.47715 5.47715 1 11 1M1 11H5M11 1V5" stroke="var(--stroke-0, #6941C6)" stroke-width="2" stroke-linecap="round" stroke-linejoin="round"/>
</g>
</svg>
