<svg preserveAspectRatio="none" width="100%" height="100%" overflow="visible" style="display: block;" viewBox="0 0 16.5002 13.5" fill="none" xmlns="http://www.w3.org/2000/svg">
<path id="Icon" d="M0.75008 3L4.64546 5.59692C4.87019 5.74674 4.98256 5.82165 5.10413 5.87472C5.21203 5.92183 5.3251 5.95606 5.44101 5.97672C5.5716 6 5.70665 6 5.97674 6H10.5234C10.7935 6 10.9286 6 11.0591 5.97672C11.1751 5.95606 11.2881 5.92183 11.396 5.87472C11.5176 5.82165 11.63 5.74674 11.8547 5.59692L15.7501 3M4.35008 12.75H12.1501C13.4102 12.75 14.0403 12.75 14.5216 12.5048C14.9449 12.2891 15.2891 11.9448 15.5048 11.5215C15.7501 11.0402 15.7501 10.4101 15.7501 9.15V4.35C15.7501 3.08988 15.7501 2.45982 15.5048 1.97852C15.2891 1.55516 14.9449 1.21095 14.5216 0.995236C14.0403 0.750001 13.4102 0.750001 12.1501 0.750001H4.35008C3.08996 0.750001 2.4599 0.750001 1.9786 0.995236C1.55524 1.21095 1.21103 1.55516 0.995315 1.97852C0.75008 2.45982 0.75008 3.08988 0.75008 4.35V9.15C0.75008 10.4101 0.75008 11.0402 0.995315 11.5215C1.21103 11.9448 1.55524 12.2891 1.9786 12.5048C2.4599 12.75 3.08996 12.75 4.35008 12.75Z" stroke="var(--stroke-0, #344054)" stroke-width="1.5" stroke-linecap="round" stroke-linejoin="round"/>
</svg>
