<svg preserveAspectRatio="none" width="100%" height="100%" overflow="visible" style="display: block;" viewBox="0 0 20.732 20.732" fill="none" xmlns="http://www.w3.org/2000/svg">
<path id="Icon" d="M8.87257 11.8594L19.3726 1.35941M9.00015 12.1875L11.6283 18.9455C11.8598 19.5408 11.9755 19.8385 12.1423 19.9254C12.2869 20.0007 12.4592 20.0008 12.6039 19.9257C12.7708 19.839 12.8869 19.5414 13.1191 18.9464L19.7095 2.05861C19.9191 1.52143 20.0239 1.25284 19.9666 1.08121C19.9168 0.932159 19.7998 0.815191 19.6508 0.765398C19.4791 0.708063 19.2106 0.812878 18.6734 1.02251L1.78562 7.61285C1.19055 7.84507 0.893013 7.96119 0.806304 8.12809C0.731136 8.27278 0.731238 8.44503 0.806575 8.58963C0.893481 8.75643 1.19115 8.87219 1.7865 9.10371L8.5445 11.7318C8.66535 11.7788 8.72578 11.8023 8.77666 11.8386C8.82175 11.8708 8.86119 11.9102 8.89336 11.9553C8.92965 12.0062 8.95315 12.0666 9.00015 12.1875Z" stroke="var(--stroke-0, white)" stroke-width="1.5" stroke-linecap="round" stroke-linejoin="round"/>
</svg>
