<svg preserveAspectRatio="none" width="100%" height="100%" overflow="visible" style="display: block;" viewBox="0 0 24 24" fill="none" xmlns="http://www.w3.org/2000/svg">
<g id="target-04">
<g id="Icon">
<path d="M19 2L16 5V8H19L22 5L20 4L19 2Z" fill="var(--fill-0, #F0ECF9)"/>
<path d="M16 8L12 11.9999Z" fill="var(--fill-0, #F0ECF9)"/>
<path d="M16 8V5L19 2L20 4L22 5L19 8H16ZM16 8L12 11.9999M22 12C22 17.5228 17.5228 22 12 22C6.47715 22 2 17.5228 2 12C2 6.47715 6.47715 2 12 2M17 12C17 14.7614 14.7614 17 12 17C9.23858 17 7 14.7614 7 12C7 9.23858 9.23858 7 12 7" stroke="var(--stroke-0, #6941C6)" stroke-width="2" stroke-linecap="round" stroke-linejoin="round"/>
</g>
</g>
</svg>
