<svg preserveAspectRatio="none" width="100%" height="100%" overflow="visible" style="display: block;" viewBox="0 0 18 18" fill="none" xmlns="http://www.w3.org/2000/svg">
<g id="users-03">
<path id="Icon" d="M13.5 11.8777C14.5919 12.4262 15.5281 13.3065 16.2114 14.4072C16.3467 14.6252 16.4144 14.7342 16.4378 14.8851C16.4853 15.1918 16.2756 15.5689 15.99 15.6903C15.8494 15.75 15.6913 15.75 15.375 15.75M12 8.64918C13.1113 8.09692 13.875 6.95015 13.875 5.625C13.875 4.29985 13.1113 3.15308 12 2.60082M10.5 5.625C10.5 7.48896 8.98896 9 7.125 9C5.26104 9 3.75 7.48896 3.75 5.625C3.75 3.76104 5.26104 2.25 7.125 2.25C8.98896 2.25 10.5 3.76104 10.5 5.625ZM1.91942 14.2038C3.11515 12.4084 5.00203 11.25 7.125 11.25C9.24797 11.25 11.1348 12.4084 12.3306 14.2038C12.5925 14.5971 12.7235 14.7937 12.7084 15.0449C12.6967 15.2405 12.5685 15.48 12.4122 15.5982C12.2114 15.75 11.9354 15.75 11.3832 15.75H2.86677C2.31463 15.75 2.03856 15.75 1.83783 15.5982C1.68154 15.48 1.55332 15.2405 1.54158 15.0449C1.5265 14.7937 1.65747 14.5971 1.91942 14.2038Z" stroke="var(--stroke-0, white)" stroke-opacity="0.5" stroke-width="1.5" stroke-linecap="round" stroke-linejoin="round"/>
</g>
</svg>
