<svg preserveAspectRatio="none" width="100%" height="100%" overflow="visible" style="display: block;" viewBox="0 0 135.05 217.851" fill="none" xmlns="http://www.w3.org/2000/svg">
<path id="Vector 4935" d="M0 10.6667C0 16.5577 4.77563 21.3333 10.6667 21.3333C16.5577 21.3333 21.3333 16.5577 21.3333 10.6667C21.3333 4.77563 16.5577 0 10.6667 0C4.77563 0 0 4.77563 0 10.6667ZM113.717 207.184C113.717 213.075 118.492 217.851 124.383 217.851C130.274 217.851 135.05 213.075 135.05 207.184C135.05 201.293 130.274 196.518 124.383 196.518C118.492 196.518 113.717 201.293 113.717 207.184ZM10.6667 10.6667H8.66667V14.6784H10.6667H12.6667V10.6667H10.6667ZM10.6667 22.702H8.66667V30.7255H10.6667H12.6667V22.702H10.6667ZM10.6667 38.749H8.66667V46.7725H10.6667H12.6667V38.749H10.6667ZM10.6667 54.7961H8.66667V62.8196H10.6667H12.6667V54.7961H10.6667ZM10.6667 70.8431H8.66667V78.8666H10.6667H12.6667V70.8431H10.6667ZM10.6667 86.8902H8.66667V94.9137H10.6667H12.6667V86.8902H10.6667ZM10.6667 102.937H8.66667V110.961H10.6667H12.6667V102.937H10.6667ZM10.6667 118.984H8.66667V127.008H10.6667H12.6667V118.984H10.6667ZM10.6667 135.031H8.66667V143.055H10.6667H12.6667V135.031H10.6667ZM10.6667 151.078H8.66667V159.102H10.6667H12.6667V151.078H10.6667ZM10.6667 167.125H8.66667V175.149H10.6667H12.6667V167.125H10.6667ZM10.6667 183.173H8.66667V187.184H10.6667H12.6667V183.173H10.6667ZM10.6667 187.184H8.66667C8.66667 188.651 8.81048 190.086 9.08537 191.476L11.0473 191.087L13.0093 190.699C12.7847 189.564 12.6667 188.389 12.6667 187.184H10.6667ZM14.0354 198.297L12.3734 199.409C13.979 201.807 16.0434 203.872 18.4417 205.477L19.5544 203.816L20.667 202.154C18.7032 200.839 17.012 199.148 15.6973 197.184L14.0354 198.297ZM26.7634 206.804L26.3753 208.766C27.7648 209.04 29.2 209.184 30.6667 209.184V207.184V205.184C29.462 205.184 28.2868 205.066 27.1516 204.842L26.7634 206.804ZM30.6667 207.184V209.184H34.5715V207.184V205.184H30.6667V207.184ZM42.3813 207.184V209.184H50.191V207.184V205.184H42.3813V207.184ZM58.0007 207.184V209.184H65.8105V207.184V205.184H58.0007V207.184ZM73.6202 207.184V209.184H81.4299V207.184V205.184H73.6202V207.184ZM89.2397 207.184V209.184H97.0494V207.184V205.184H89.2397V207.184ZM104.859 207.184V209.184H112.669V207.184V205.184H104.859V207.184ZM120.479 207.184V209.184H124.383V207.184V205.184H120.479V207.184Z" fill="var(--stroke-0, white)" fill-opacity="0.3"/>
</svg>
