<svg preserveAspectRatio="none" width="100%" height="100%" overflow="visible" style="display: block;" viewBox="0 0 135.05 104.058" fill="none" xmlns="http://www.w3.org/2000/svg">
<path id="Vector 4934" d="M0 10.6667C0 16.5577 4.77563 21.3333 10.6667 21.3333C16.5577 21.3333 21.3333 16.5577 21.3333 10.6667C21.3333 4.77563 16.5577 0 10.6667 0C4.77563 0 0 4.77563 0 10.6667ZM113.717 93.3913C113.717 99.2823 118.492 104.058 124.383 104.058C130.274 104.058 135.05 99.2823 135.05 93.3913C135.05 87.5002 130.274 82.7246 124.383 82.7246C118.492 82.7246 113.717 87.5002 113.717 93.3913ZM10.6667 10.6667H8.66667V14.587H10.6667H12.6667V10.6667H10.6667ZM10.6667 22.4275H8.66667V30.2681H10.6667H12.6667V22.4275H10.6667ZM10.6667 38.1087H8.66667V45.9493H10.6667H12.6667V38.1087H10.6667ZM10.6667 53.7898H8.66667V61.6304H10.6667H12.6667V53.7898H10.6667ZM10.6667 69.471H8.66667V73.3913H10.6667H12.6667V69.471H10.6667ZM10.6667 73.3913H8.66667C8.66667 74.858 8.81048 76.2931 9.08537 77.6827L11.0473 77.2945L13.0093 76.9064C12.7847 75.7711 12.6667 74.596 12.6667 73.3913H10.6667ZM14.0354 84.5036L12.3734 85.6162C13.979 88.0145 16.0434 90.0789 18.4417 91.6845L19.5544 90.0226L20.667 88.3607C18.7032 87.0459 17.012 85.3547 15.6973 83.391L14.0354 84.5036ZM26.7634 93.0106L26.3753 94.9726C27.7648 95.2475 29.2 95.3913 30.6667 95.3913V93.3913V91.3913C29.462 91.3913 28.2868 91.2732 27.1516 91.0486L26.7634 93.0106ZM30.6667 93.3913V95.3913H34.5715V93.3913V91.3913H30.6667V93.3913ZM42.3813 93.3913V95.3913H50.191V93.3913V91.3913H42.3813V93.3913ZM58.0007 93.3913V95.3913H65.8105V93.3913V91.3913H58.0007V93.3913ZM73.6202 93.3913V95.3913H81.4299V93.3913V91.3913H73.6202V93.3913ZM89.2397 93.3913V95.3913H97.0494V93.3913V91.3913H89.2397V93.3913ZM104.859 93.3913V95.3913H112.669V93.3913V91.3913H104.859V93.3913ZM120.479 93.3913V95.3913H124.383V93.3913V91.3913H120.479V93.3913Z" fill="var(--stroke-0, white)" fill-opacity="0.3"/>
</svg>
