<svg preserveAspectRatio="none" width="100%" height="100%" overflow="visible" style="display: block;" viewBox="0 0 135.05 183.63" fill="none" xmlns="http://www.w3.org/2000/svg">
<path id="Vector 4934" d="M0 10.6667C0 16.5577 4.77563 21.3333 10.6667 21.3333C16.5577 21.3333 21.3333 16.5577 21.3333 10.6667C21.3333 4.77563 16.5577 0 10.6667 0C4.77563 0 0 4.77563 0 10.6667ZM113.717 172.964C113.717 178.855 118.492 183.63 124.383 183.63C130.274 183.63 135.05 178.855 135.05 172.964C135.05 167.073 130.274 162.297 124.383 162.297C118.492 162.297 113.717 167.073 113.717 172.964ZM10.6667 10.6667H8.66667V14.6194H10.6667H12.6667V10.6667H10.6667ZM10.6667 22.5247H8.66667V30.4301H10.6667H12.6667V22.5247H10.6667ZM10.6667 38.3355H8.66667V46.2409H10.6667H12.6667V38.3355H10.6667ZM10.6667 54.1463H8.66667V62.0516H10.6667H12.6667V54.1463H10.6667ZM10.6667 69.957H8.66667V77.8624H10.6667H12.6667V69.957H10.6667ZM10.6667 85.7678H8.66667V93.6732H10.6667H12.6667V85.7678H10.6667ZM10.6667 101.579H8.66667V109.484H10.6667H12.6667V101.579H10.6667ZM10.6667 117.389H8.66667V125.295H10.6667H12.6667V117.389H10.6667ZM10.6667 133.2H8.66667V141.105H10.6667H12.6667V133.2H10.6667ZM10.6667 149.011H8.66667V152.964H10.6667H12.6667V149.011H10.6667ZM10.6667 152.964H8.66667C8.66667 154.43 8.81048 155.865 9.08537 157.255L11.0473 156.867L13.0093 156.479C12.7847 155.343 12.6667 154.168 12.6667 152.964H10.6667ZM14.0354 164.076L12.3734 165.189C13.979 167.587 16.0434 169.651 18.4417 171.257L19.5544 169.595L20.667 167.933C18.7032 166.618 17.012 164.927 15.6973 162.963L14.0354 164.076ZM26.7634 172.583L26.3753 174.545C27.7648 174.82 29.2 174.964 30.6667 174.964V172.964V170.964C29.462 170.964 28.2868 170.845 27.1516 170.621L26.7634 172.583ZM30.6667 172.964V174.964H34.5715V172.964V170.964H30.6667V172.964ZM42.3813 172.964V174.964H50.191V172.964V170.964H42.3813V172.964ZM58.0007 172.964V174.964H65.8105V172.964V170.964H58.0007V172.964ZM73.6202 172.964V174.964H81.4299V172.964V170.964H73.6202V172.964ZM89.2397 172.964V174.964H97.0494V172.964V170.964H89.2397V172.964ZM104.859 172.964V174.964H112.669V172.964V170.964H104.859V172.964ZM120.479 172.964V174.964H124.383V172.964V170.964H120.479V172.964Z" fill="var(--stroke-0, white)" fill-opacity="0.3"/>
</svg>
