<svg preserveAspectRatio="none" width="100%" height="100%" overflow="visible" style="display: block;" viewBox="0 0 100.971 254.575" fill="none" xmlns="http://www.w3.org/2000/svg">
<path id="Vector 4935" d="M79.6375 10.6667C79.6375 16.5577 84.4131 21.3333 90.3042 21.3333C96.1952 21.3333 100.971 16.5577 100.971 10.6667C100.971 4.77563 96.1952 0 90.3042 0C84.4131 0 79.6375 4.77563 79.6375 10.6667ZM10.6665 132.109H8.66648V132.109L10.6665 132.109ZM0 243.908C0 249.799 4.77563 254.575 10.6667 254.575C16.5577 254.575 21.3333 249.799 21.3333 243.908C21.3333 238.017 16.5577 233.241 10.6667 233.241C4.77563 233.241 0 238.017 0 243.908ZM10.6667 243.908H12.6667L12.6667 239.915L10.6667 239.915H8.66666L8.66667 243.908L10.6667 243.908ZM10.6666 231.93H12.6666L12.6666 223.944H10.6666L8.66663 223.944L8.66665 231.93H10.6666ZM10.6666 215.958H12.6666L12.6666 207.973H10.6666H8.66661L8.66662 215.958H10.6666ZM10.6666 199.987L12.6666 199.987L12.6666 192.002H10.6666L8.66658 192.002L8.66659 199.987H10.6666ZM10.6666 184.016L12.6666 184.016L12.6666 176.03H10.6666L8.66655 176.03L8.66656 184.016H10.6666ZM10.6665 168.045H12.6665L12.6665 160.059H10.6665H8.66652L8.66654 168.045H10.6665ZM10.6665 152.073H12.6665L12.6665 144.088H10.6665H8.6665L8.66651 152.073H10.6665ZM10.6665 136.102L12.6665 136.102L12.6665 132.109H10.6665L8.66648 132.109L8.66648 136.102H10.6665ZM10.6665 132.109H12.6665L12.6665 127.883H10.6665H8.66648V132.109H10.6665ZM10.6665 119.429H12.6665L12.6665 110.976H10.6665H8.66647L8.66648 119.429H10.6665ZM10.6665 102.522H12.6665L12.6665 94.0684H10.6665H8.66647L8.66647 102.522H10.6665ZM10.6665 85.6148H12.6665L12.6665 77.1613L10.6665 77.1613H8.66647L8.66647 85.6148H10.6665ZM10.6665 68.7077H12.6665L12.6665 60.2541H10.6665H8.66647L8.66647 68.7077H10.6665ZM10.6665 51.8006H12.6665L12.6665 43.347H10.6665H8.66647L8.66647 51.8006H10.6665ZM10.6665 34.8935H12.6665L12.6665 30.6667H10.6665H8.66647V34.8935H10.6665ZM10.6665 30.6667H12.6665C12.6665 29.462 12.7845 28.2868 13.0091 27.1516L11.0472 26.7634L9.08518 26.3753C8.81028 27.7648 8.66647 29.1999 8.66647 30.6667H10.6665ZM14.0352 19.5544L15.6971 20.667C17.0118 18.7032 18.703 17.012 20.6668 15.6973L19.5542 14.0354L18.4415 12.3734C16.0433 13.979 13.9788 16.0434 12.3732 18.4417L14.0352 19.5544ZM26.7632 11.0473L27.1514 13.0093C28.2866 12.7847 29.4618 12.6667 30.6665 12.6667V10.6667V8.66667C29.1998 8.66667 27.7646 8.81048 26.3751 9.08537L26.7632 11.0473ZM30.6665 10.6667V12.6667H34.3938V10.6667V8.66667H30.6665V10.6667ZM41.8485 10.6667V12.6667H49.3033V10.6667V8.66667H41.8485V10.6667ZM56.758 10.6667V12.6667H64.2127V10.6667V8.66667H56.758V10.6667ZM71.6674 10.6667V12.6667H79.1221V10.6667V8.66667H71.6674V10.6667ZM86.5768 10.6667V12.6667H90.3042V10.6667V8.66667H86.5768V10.6667Z" fill="var(--stroke-0, white)" fill-opacity="0.3"/>
</svg>
