<svg preserveAspectRatio="none" width="100%" height="100%" overflow="visible" style="display: block;" viewBox="0 0 20 20" fill="none" xmlns="http://www.w3.org/2000/svg">
<g id="check-circle-broken" clip-path="url(#clip0_0_62)">
<path id="Icon" d="M18.3333 9.2381V10.0048C18.3323 11.8018 17.7504 13.5503 16.6744 14.9896C15.5985 16.4289 14.0861 17.4818 12.3628 17.9914C10.6395 18.5009 8.79772 18.4397 7.11206 17.8169C5.4264 17.1942 3.98721 16.0432 3.00913 14.5357C2.03106 13.0281 1.56649 11.2448 1.68473 9.4517C1.80297 7.65857 2.49767 5.95171 3.66523 4.58566C4.83279 3.21962 6.41065 2.26759 8.16349 1.87156C9.91633 1.47553 11.7502 1.65672 13.3917 2.3881M18.3333 3.33333L10 11.675L7.5 9.175" stroke="var(--stroke-0, #12B76A)" stroke-width="1.66667" stroke-linecap="round" stroke-linejoin="round"/>
</g>
<defs>
<clipPath id="clip0_0_62">
<rect width="20" height="20" fill="white"/>
</clipPath>
</defs>
</svg>
