<svg preserveAspectRatio="none" width="100%" height="100%" overflow="visible" style="display: block;" viewBox="0 0 13.5 15" fill="none" xmlns="http://www.w3.org/2000/svg">
<path id="Icon" d="M10.5 6V4.5C10.5 2.42893 8.82107 0.75 6.75 0.75C4.67893 0.75 3 2.42893 3 4.5V6M6.75 9.375V10.875M4.35 14.25H9.15C10.4101 14.25 11.0402 14.25 11.5215 14.0048C11.9448 13.789 12.2891 13.4448 12.5048 13.0215C12.75 12.5402 12.75 11.9101 12.75 10.65V9.6C12.75 8.33988 12.75 7.70982 12.5048 7.22852C12.2891 6.80516 11.9448 6.46095 11.5215 6.24524C11.0402 6 10.4101 6 9.15 6H4.35C3.08988 6 2.45982 6 1.97852 6.24524C1.55516 6.46095 1.21095 6.80516 0.995236 7.22852C0.750001 7.70982 0.750001 8.33988 0.750001 9.6V10.65C0.750001 11.9101 0.750001 12.5402 0.995236 13.0215C1.21095 13.4448 1.55516 13.789 1.97852 14.0048C2.45982 14.25 3.08988 14.25 4.35 14.25Z" stroke="var(--stroke-0, #344054)" stroke-width="1.5" stroke-linecap="round" stroke-linejoin="round"/>
</svg>
