<svg preserveAspectRatio="none" width="100%" height="100%" overflow="visible" style="display: block;" viewBox="0 0 156.122 28.3209" fill="none" xmlns="http://www.w3.org/2000/svg">
<g id="Layer_x0020_1">
<path id="Vector" d="M41.3566 5.0099C43.1298 5.0099 44.6223 5.60702 45.8334 6.8006C47.0448 7.99451 47.6503 9.46036 47.6503 11.1985C47.6503 12.9366 47.0445 14.4025 45.8334 15.5964C44.6219 16.7903 43.1298 17.3871 41.3566 17.3871H38.1173V23.4439H34.4833V5.00956H41.3566V5.0099ZM41.3566 13.99C42.129 13.99 42.7699 13.7221 43.2791 13.1866C43.7882 12.6512 44.0427 11.9884 44.0427 11.1985C44.0427 10.3908 43.7882 9.72387 43.2791 9.19718C42.7699 8.67048 42.129 8.40697 41.3566 8.40697H38.1173V13.99H41.3566ZM59.0007 10.2769H62.3978V23.4442H59.0007V21.8904C57.9824 23.172 56.5516 23.8129 54.7083 23.8129C52.9527 23.8129 51.4474 23.1413 50.1918 21.7981C48.9366 20.4549 48.3088 18.8091 48.3088 16.8604C48.3088 14.9116 48.9362 13.2658 50.1918 11.9226C51.4471 10.5795 52.9527 9.90786 54.7083 9.90786C56.5516 9.90786 57.9827 10.5488 59.0007 11.8303V10.2765V10.2769ZM52.733 19.5333C53.4177 20.2268 54.2868 20.5735 55.3402 20.5735C56.3935 20.5735 57.267 20.2268 57.9605 19.5333C58.654 18.8398 59.0007 17.9488 59.0007 16.8604C59.0007 15.7719 58.654 14.881 57.9605 14.1875C57.267 13.494 56.3935 13.1472 55.3402 13.1472C54.2868 13.1472 53.4177 13.494 52.733 14.1875C52.0482 14.881 51.7059 15.7719 51.7059 16.8604C51.7059 17.9488 52.0482 18.8398 52.733 19.5333ZM75.4597 5.0099H78.8568V23.4442H75.4597V21.8904C74.4589 23.172 73.0368 23.8129 71.1936 23.8129C69.4204 23.8129 67.906 23.1413 66.6508 21.7981C65.3956 20.4549 64.7678 18.8091 64.7678 16.8604C64.7678 14.9116 65.3956 13.2658 66.6508 11.9226C67.906 10.5795 69.4204 9.90786 71.1936 9.90786C73.0368 9.90786 74.4592 10.5488 75.4597 11.8303V5.00956V5.0099ZM69.2051 19.5333C69.8986 20.2268 70.772 20.5735 71.8254 20.5735C72.8788 20.5735 73.7479 20.2268 74.4326 19.5333C75.1173 18.8398 75.4597 17.9488 75.4597 16.8604C75.4597 15.7719 75.1173 14.881 74.4326 14.1875C73.7479 13.494 72.8788 13.1472 71.8254 13.1472C70.772 13.1472 69.8986 13.494 69.2051 14.1875C68.5116 14.881 68.1648 15.7719 68.1648 16.8604C68.1648 17.9488 68.5116 18.8398 69.2051 19.5333ZM83.6496 8.69677C83.0879 8.69677 82.6006 8.49054 82.1881 8.07808C81.7757 7.66562 81.5694 7.17835 81.5694 6.61661C81.5694 6.05487 81.7757 5.56322 82.1881 5.142C82.6006 4.72044 83.0879 4.50983 83.6496 4.50983C84.2289 4.50983 84.7249 4.72044 85.1374 5.142C85.5498 5.56322 85.756 6.05487 85.756 6.61661C85.756 7.17835 85.5498 7.66562 85.1374 8.07808C84.7249 8.49054 84.2289 8.69677 83.6496 8.69677ZM81.9644 23.4442V10.2769H85.3614V23.4442H81.9644ZM103.295 10.2769H106.556L102.716 23.4442H99.3844L96.8958 15.465L94.4029 23.4442H91.0759L87.2047 10.2769H90.7949L93.0509 18.3616L95.4475 10.2769H98.6646L101.061 18.3879L103.295 10.2769ZM119.438 21.7981C118.086 23.1413 116.436 23.8129 114.487 23.8129C112.539 23.8129 110.893 23.1413 109.55 21.7981C108.206 20.4549 107.535 18.8091 107.535 16.8604C107.535 14.9116 108.207 13.2658 109.55 11.9226C110.893 10.5795 112.539 9.90786 114.487 9.90786C116.436 9.90786 118.086 10.5795 119.438 11.9226C120.79 13.2658 121.466 14.9116 121.466 16.8604C121.466 18.8091 120.79 20.4549 119.438 21.7981ZM111.946 19.4676C112.622 20.1523 113.469 20.4947 114.487 20.4947C115.506 20.4947 116.357 20.1523 117.042 19.4676C117.726 18.7828 118.069 17.9138 118.069 16.8604C118.069 15.807 117.726 14.9379 117.042 14.2532C116.357 13.5684 115.505 13.2261 114.487 13.2261C113.469 13.2261 112.622 13.5684 111.946 14.2532C111.27 14.9379 110.932 15.807 110.932 16.8604C110.932 17.9138 111.27 18.7828 111.946 19.4676ZM127.259 12.5417C127.576 11.6989 128.098 11.0671 128.826 10.6455C129.555 10.2243 130.367 10.0133 131.262 10.0133V13.8053C130.227 13.6823 129.301 13.893 128.484 14.4375C127.668 14.9817 127.259 15.8858 127.259 17.1498V23.4439H123.862V10.2765H127.259V12.5413V12.5417ZM145.378 23.4442H141.427L136.635 17.4619V23.4442H133.237V5.0099H136.635V16.0924L141.164 10.2769H145.22L139.926 16.7815L145.378 23.4442ZM149.328 14.0166C149.328 14.3678 149.56 14.6532 150.026 14.8725C150.491 15.0919 151.057 15.285 151.724 15.4518C152.392 15.6186 153.059 15.8292 153.726 16.084C154.393 16.3384 154.959 16.7643 155.424 17.3611C155.89 17.9579 156.122 18.7043 156.122 19.5997C156.122 20.9516 155.617 21.9919 154.608 22.7204C153.598 23.4489 152.339 23.8132 150.829 23.8132C148.125 23.8132 146.282 22.7686 145.299 20.6793L148.248 19.0201C148.635 20.1614 149.495 20.7319 150.829 20.7319C152.041 20.7319 152.646 20.3545 152.646 19.5997C152.646 19.2485 152.414 18.9634 151.948 18.7437C151.483 18.5244 150.917 18.3269 150.25 18.1513C149.583 17.9758 148.915 17.7564 148.248 17.4929C147.581 17.2297 147.015 16.8125 146.55 16.242C146.084 15.6715 145.852 14.9561 145.852 14.0958C145.852 12.7968 146.33 11.774 147.287 11.028C148.244 10.2819 149.433 9.90887 150.855 9.90887C151.926 9.90887 152.901 10.1501 153.779 10.633C154.656 11.1159 155.35 11.805 155.859 12.7004L152.962 14.2805C152.541 13.3851 151.839 12.9373 150.855 12.9373C150.417 12.9373 150.052 13.034 149.762 13.2271C149.473 13.4202 149.328 13.6837 149.328 14.0173L149.328 14.0166Z" fill="var(--fill-0, white)"/>
<path id="Vector_2" fill-rule="evenodd" clip-rule="evenodd" d="M15.4009 7.81618V0C18.3946 0.258798 21.1227 1.44563 23.2962 3.27104L17.7698 8.79746C18.461 9.2635 19.0574 9.85995 19.5234 10.5511L25.0499 5.02467C26.8753 7.1985 28.0621 9.92667 28.3209 12.92H20.5047C20.5826 13.3214 20.624 13.7359 20.624 14.1605C20.624 14.5847 20.5826 14.9992 20.5047 15.4005H28.3209C28.0621 18.3942 26.8756 21.1224 25.0499 23.2962L19.5234 17.7698C19.0574 18.461 18.4613 19.0571 17.7698 19.5234L23.2962 25.0499C21.1224 26.8753 18.3942 28.0621 15.4005 28.3209V20.5047C14.9992 20.5826 14.5847 20.624 14.1601 20.624C13.7359 20.624 13.3214 20.5826 12.92 20.5047V28.3209C9.92633 28.0621 7.19817 26.8753 5.02433 25.0499L10.5508 19.5234C9.85961 19.0574 9.2635 18.461 8.79746 17.7698L3.27104 23.2962C1.44529 21.1224 0.258798 18.3942 0 15.4005H7.81618C7.73834 14.9992 7.69689 14.5847 7.69689 14.1605C7.69689 13.7362 7.73834 13.3217 7.81618 12.92H0C0.258798 9.92633 1.44563 7.19817 3.27104 5.02467L8.79746 10.5511C9.2635 9.85961 9.85995 9.2635 10.5511 8.79746L5.02467 3.27104C7.1985 1.44529 9.92667 0.258798 12.9204 0V7.81618C13.3217 7.73834 13.7362 7.69689 14.1605 7.69689C14.5847 7.69689 14.9992 7.73834 15.4009 7.81652V7.81618ZM14.1605 12.6104C15.0164 12.6104 15.7105 13.3042 15.7105 14.1605C15.7105 15.0164 15.0167 15.7105 14.1605 15.7105C13.3045 15.7105 12.6104 15.0167 12.6104 14.1605C12.6104 13.3045 13.3042 12.6104 14.1605 12.6104Z" fill="var(--fill-0, white)"/>
</g>
</svg>
