<svg preserveAspectRatio="none" width="100%" height="100%" overflow="visible" style="display: block;" viewBox="0 0 17.2686 14.853" fill="none" xmlns="http://www.w3.org/2000/svg">
<g id="Group">
<g id="Group_2">
<path id="Vector" d="M17.2686 8.63466V14.2516C17.2686 14.5839 16.5858 14.853 15.743 14.853C14.9009 14.853 14.2174 14.5839 14.2174 14.2516V8.63466C14.2174 5.55561 11.7127 3.05157 8.63436 3.05157C5.55601 3.05157 3.05127 5.55561 3.05127 8.63466V14.2516C3.05127 14.5839 2.36782 14.853 1.52568 14.853C0.682833 14.853 9.26916e-05 14.5839 9.26916e-05 14.2516V8.63466C9.26916e-05 3.87343 3.87306 0.000396211 8.63436 0.000396211C13.3957 0.000396211 17.2686 3.87343 17.2686 8.63466Z" fill="url(#paint0_linear_0_21)"/>
</g>
<path id="Vector_2" d="M8.63428 0.000198106C8.51121 0.000198106 8.38891 0.00343684 8.26703 0.00850617V3.06482C8.38856 3.05686 8.51078 3.05144 8.63428 3.05144C11.7126 3.05144 14.2174 5.55548 14.2174 8.63453V14.2515C14.2174 14.5837 14.9008 14.8529 15.743 14.8529C16.5858 14.8529 17.2685 14.5837 17.2685 14.2515V8.63453C17.2685 3.87324 13.3956 0.000198106 8.63428 0.000198106Z" fill="url(#paint1_linear_0_21)"/>
<g id="Group_3">
<path id="Vector_3" d="M1.52568 14.8523C2.36782 14.8523 3.05127 14.5831 3.05127 14.2508V8.63387C3.05127 8.3897 3.06873 8.14968 3.09928 7.91368H0.0303673C0.0106533 8.15123 9.26916e-05 8.39132 9.26916e-05 8.63387V14.2508C9.26916e-05 14.583 0.682903 14.8523 1.52568 14.8523Z" fill="url(#paint2_linear_0_21)"/>
<path id="Vector_4" d="M14.2174 8.63387V14.2508C14.2174 14.5831 14.9009 14.8523 15.743 14.8523C16.5858 14.8523 17.2686 14.5831 17.2686 14.2508V8.63387C17.2686 8.39132 17.258 8.15123 17.2383 7.91368H14.1694C14.1999 8.14968 14.2174 8.3897 14.2174 8.63387Z" fill="url(#paint3_linear_0_21)"/>
</g>
</g>
<defs>
<linearGradient id="paint0_linear_0_21" x1="3.43203" y1="1.50662" x2="7.58895" y2="8.53151" gradientUnits="userSpaceOnUse">
<stop stop-color="#F5FBFF"/>
<stop offset="1" stop-color="#DBD5EF"/>
</linearGradient>
<linearGradient id="paint1_linear_0_21" x1="12.5851" y1="7.42655" x2="17.2539" y2="7.42655" gradientUnits="userSpaceOnUse">
<stop stop-color="#DBD5EF" stop-opacity="0"/>
<stop offset="0.2853" stop-color="#D9D2EE" stop-opacity="0.285"/>
<stop offset="0.4739" stop-color="#D4C9E9" stop-opacity="0.474"/>
<stop offset="0.6346" stop-color="#CBBAE2" stop-opacity="0.635"/>
<stop offset="0.7795" stop-color="#BFA5D7" stop-opacity="0.78"/>
<stop offset="0.9126" stop-color="#AF8ACA" stop-opacity="0.913"/>
<stop offset="1" stop-color="#A274BF"/>
</linearGradient>
<linearGradient id="paint2_linear_0_21" x1="1.54969" y1="11.4905" x2="1.54969" y2="14.9391" gradientUnits="userSpaceOnUse">
<stop stop-color="#DBD5EF" stop-opacity="0"/>
<stop offset="0.2853" stop-color="#D9D2EE" stop-opacity="0.285"/>
<stop offset="0.4739" stop-color="#D4C9E9" stop-opacity="0.474"/>
<stop offset="0.6346" stop-color="#CBBAE2" stop-opacity="0.635"/>
<stop offset="0.7795" stop-color="#BFA5D7" stop-opacity="0.78"/>
<stop offset="0.9126" stop-color="#AF8ACA" stop-opacity="0.913"/>
<stop offset="1" stop-color="#A274BF"/>
</linearGradient>
<linearGradient id="paint3_linear_0_21" x1="15.719" y1="11.4906" x2="15.719" y2="14.9392" gradientUnits="userSpaceOnUse">
<stop stop-color="#DBD5EF" stop-opacity="0"/>
<stop offset="0.2853" stop-color="#D9D2EE" stop-opacity="0.285"/>
<stop offset="0.4739" stop-color="#D4C9E9" stop-opacity="0.474"/>
<stop offset="0.6346" stop-color="#CBBAE2" stop-opacity="0.635"/>
<stop offset="0.7795" stop-color="#BFA5D7" stop-opacity="0.78"/>
<stop offset="0.9126" stop-color="#AF8ACA" stop-opacity="0.913"/>
<stop offset="1" stop-color="#A274BF"/>
</linearGradient>
</defs>
</svg>
