<svg preserveAspectRatio="none" width="100%" height="100%" overflow="visible" style="display: block;" viewBox="0 0 26.5858 23.576" fill="none" xmlns="http://www.w3.org/2000/svg">
<g id="Group">
<path id="Vector" d="M22.9266 8.21782e-05H3.65921C3.31837 8.21782e-05 2.98788 0.116888 2.72272 0.330997L2.01935 0.899044C0.742234 1.93044 0 3.48398 0 5.12553V22.0849C0 22.9081 0.667321 23.5754 1.49052 23.5754H25.0953C25.9185 23.5754 26.5858 22.9081 26.5858 22.0849V5.12553C26.5858 3.48398 25.8436 1.93044 24.5665 0.899113L23.8631 0.331067C23.5979 0.116888 23.2674 8.21782e-05 22.9266 8.21782e-05Z" fill="url(#paint0_linear_0_10)"/>
<g id="Group_2">
<path id="Vector_2" d="M6.18426 2.64558C7.3981 2.64558 8.3821 2.25766 8.3821 1.77915C8.3821 1.30063 7.3981 0.912714 6.18426 0.912714C4.97043 0.912714 3.98643 1.30063 3.98643 1.77915C3.98643 2.25766 4.97043 2.64558 6.18426 2.64558Z" fill="url(#paint1_linear_0_10)"/>
<path id="Vector_3" d="M20.3775 2.64562C21.5914 2.64562 22.5754 2.2577 22.5754 1.77918C22.5754 1.30066 21.5914 0.91275 20.3775 0.91275C19.1637 0.91275 18.1797 1.30066 18.1797 1.77918C18.1797 2.2577 19.1637 2.64562 20.3775 2.64562Z" fill="url(#paint2_linear_0_10)"/>
</g>
<path id="Vector_4" d="M26.5857 22.0848V5.12537C26.5857 3.48383 25.8435 1.93029 24.5664 0.89896L23.863 0.330914C23.5979 0.116806 23.2674 0 22.9265 0H6.84782L4.80896 2.03886L26.0219 23.2518C26.3653 22.9787 26.5857 22.5576 26.5857 22.0848Z" fill="url(#paint3_linear_0_10)"/>
<path id="Vector_5" d="M13.2928 20.4817C11.9724 20.4817 10.8982 19.4074 10.8982 18.087V15.7775C10.8982 15.2768 10.6795 14.8099 10.2982 14.4965C9.15353 13.5554 8.52662 12.166 8.57823 10.6847C8.62062 9.46642 9.13079 8.32413 10.0147 7.46826C10.8981 6.61288 12.0559 6.13932 13.2749 6.13474H13.2928C15.8941 6.13474 18.0104 8.25098 18.0104 10.8522C18.0104 12.2679 17.3825 13.5961 16.2878 14.4962C15.9064 14.8099 15.6875 15.2769 15.6875 15.7775V18.0871C15.6875 19.4074 14.6133 20.4817 13.2928 20.4817Z" fill="url(#paint4_linear_0_10)"/>
<path id="Vector_6" d="M13.2928 20.4817C11.9724 20.4817 10.8982 19.4074 10.8982 18.087V15.7775C10.8982 15.2768 10.6795 14.8099 10.2982 14.4965C9.15353 13.5554 8.52662 12.166 8.57823 10.6847C8.62062 9.46642 9.13079 8.32413 10.0147 7.46826C10.8981 6.61288 12.0559 6.13932 13.2749 6.13474H13.2928C15.8941 6.13474 18.0104 8.25098 18.0104 10.8522C18.0104 12.2679 17.3825 13.5961 16.2878 14.4962C15.9064 14.8099 15.6875 15.2769 15.6875 15.7775V18.0871C15.6875 19.4074 14.6133 20.4817 13.2928 20.4817Z" fill="url(#paint5_linear_0_10)"/>
<path id="Vector_7" d="M0 6.0791V22.0854C0 22.9086 0.667321 23.576 1.49052 23.576H25.0953C25.9185 23.576 26.5858 22.9086 26.5858 22.0854V6.0791H0Z" fill="url(#paint6_linear_0_10)"/>
<path id="Vector_8" d="M24.5665 0.89896L23.8631 0.330914C23.598 0.116806 23.2674 0 22.9266 0H13.7739V23.5753H25.0952C25.9185 23.5753 26.5858 22.908 26.5858 22.0848V5.12537C26.5858 3.48383 25.8435 1.93029 24.5665 0.89896Z" fill="url(#paint7_linear_0_10)"/>
<path id="Vector_9" d="M24.5665 0.89896L23.8631 0.330914C23.5979 0.116806 23.2674 0 22.9266 0H21.0081L18.9958 2.01217L26.5857 9.60208V5.12544C26.5857 3.48383 25.8435 1.93029 24.5665 0.89896Z" fill="url(#paint8_linear_0_10)"/>
</g>
<defs>
<linearGradient id="paint0_linear_0_10" x1="13.2929" y1="1.57397" x2="13.2929" y2="7.57936" gradientUnits="userSpaceOnUse">
<stop stop-color="#FEF0AE"/>
<stop offset="1" stop-color="#FAC600"/>
</linearGradient>
<linearGradient id="paint1_linear_0_10" x1="6.18426" y1="2.46689" x2="6.18426" y2="0.837589" gradientUnits="userSpaceOnUse">
<stop stop-color="#FEF0AE"/>
<stop offset="1" stop-color="#FAC600"/>
</linearGradient>
<linearGradient id="paint2_linear_0_10" x1="20.3775" y1="2.46692" x2="20.3775" y2="0.837625" gradientUnits="userSpaceOnUse">
<stop stop-color="#FEF0AE"/>
<stop offset="1" stop-color="#FAC600"/>
</linearGradient>
<linearGradient id="paint3_linear_0_10" x1="13.9021" y1="0.182989" x2="10.6152" y2="-4.45728" gradientUnits="userSpaceOnUse">
<stop stop-color="#FE9738" stop-opacity="0"/>
<stop offset="1" stop-color="#FE9738"/>
</linearGradient>
<linearGradient id="paint4_linear_0_10" x1="25.0073" y1="24.5423" x2="11.0797" y2="10.6148" gradientUnits="userSpaceOnUse">
<stop stop-color="#FEF0AE"/>
<stop offset="1" stop-color="#FAC600"/>
</linearGradient>
<linearGradient id="paint5_linear_0_10" x1="11.9737" y1="12.3476" x2="7.28506" y2="9.59245" gradientUnits="userSpaceOnUse">
<stop stop-color="#FE9738" stop-opacity="0"/>
<stop offset="1" stop-color="#FE9738"/>
</linearGradient>
<linearGradient id="paint6_linear_0_10" x1="13.2929" y1="19.5613" x2="13.2929" y2="23.1382" gradientUnits="userSpaceOnUse">
<stop stop-color="#FE9738" stop-opacity="0"/>
<stop offset="1" stop-color="#FE9738"/>
</linearGradient>
<linearGradient id="paint7_linear_0_10" x1="22.0862" y1="11.7877" x2="26.4849" y2="11.7877" gradientUnits="userSpaceOnUse">
<stop stop-color="#FE9738" stop-opacity="0"/>
<stop offset="1" stop-color="#FE9738"/>
</linearGradient>
<linearGradient id="paint8_linear_0_10" x1="24.1078" y1="4.80924" x2="20.4583" y2="-0.846085" gradientUnits="userSpaceOnUse">
<stop stop-color="#FE9738" stop-opacity="0"/>
<stop offset="1" stop-color="#FE9738"/>
</linearGradient>
</defs>
</svg>
