<svg preserveAspectRatio="none" width="100%" height="100%" overflow="visible" style="display: block;" viewBox="0 0 7.40092 12.3129" fill="none" xmlns="http://www.w3.org/2000/svg">
<g id="Group">
<path id="Vector" d="M7.40092 3.7005C7.40092 1.65206 5.73649 -0.00764789 3.6863 2.65076e-05C1.71236 0.00741928 0.0710203 1.5956 0.00230269 3.56834C-0.0396601 4.77336 0.495013 5.85475 1.35173 6.55903C1.96906 7.06653 2.32286 7.82658 2.32286 8.6257V10.9353C2.32286 11.6962 2.93963 12.3129 3.70045 12.3129C4.46127 12.3129 5.07804 11.6962 5.07804 10.9353V8.6257C5.07804 7.82644 5.43205 7.06639 6.04945 6.55882C6.87455 5.88045 7.40092 4.85215 7.40092 3.7005Z" fill="url(#paint0_linear_0_4)"/>
<path id="Vector_2" d="M7.40092 3.7005C7.40092 1.65206 5.73649 -0.00764789 3.6863 2.65076e-05C1.71236 0.00741928 0.0710203 1.5956 0.00230269 3.56834C-0.0396601 4.77336 0.495013 5.85475 1.35173 6.55903C1.96906 7.06653 2.32286 7.82658 2.32286 8.6257V10.9353C2.32286 11.6962 2.93963 12.3129 3.70045 12.3129C4.46127 12.3129 5.07804 11.6962 5.07804 10.9353V8.6257C5.07804 7.82644 5.43205 7.06639 6.04945 6.55882C6.87455 5.88045 7.40092 4.85215 7.40092 3.7005Z" fill="url(#paint1_linear_0_4)"/>
<path id="Vector_3" d="M7.40092 3.7005C7.40092 1.65206 5.73649 -0.00764789 3.6863 2.65076e-05C1.71236 0.00741928 0.0710203 1.5956 0.00230269 3.56834C-0.0396601 4.77336 0.495013 5.85475 1.35173 6.55903C1.96906 7.06653 2.32286 7.82658 2.32286 8.6257V10.9353C2.32286 11.6962 2.93963 12.3129 3.70045 12.3129C4.46127 12.3129 5.07804 11.6962 5.07804 10.9353V8.6257C5.07804 7.82644 5.43205 7.06639 6.04945 6.55882C6.87455 5.88045 7.40092 4.85215 7.40092 3.7005Z" fill="url(#paint2_linear_0_4)"/>
<path id="Vector_4" d="M7.40092 3.7005C7.40092 1.65206 5.73649 -0.00764789 3.6863 2.65076e-05C1.71236 0.00741928 0.0710203 1.5956 0.00230269 3.56834C-0.0396601 4.77336 0.495013 5.85475 1.35173 6.55903C1.96906 7.06653 2.32286 7.82658 2.32286 8.6257V10.9353C2.32286 11.6962 2.93963 12.3129 3.70045 12.3129C4.46127 12.3129 5.07804 11.6962 5.07804 10.9353V8.6257C5.07804 7.82644 5.43205 7.06639 6.04945 6.55882C6.87455 5.88045 7.40092 4.85215 7.40092 3.7005Z" fill="url(#paint3_linear_0_4)"/>
</g>
<defs>
<linearGradient id="paint0_linear_0_4" x1="1.35145" y1="6.15652" x2="5.87364" y2="6.15652" gradientUnits="userSpaceOnUse">
<stop stop-color="#5A5A5A"/>
<stop offset="1" stop-color="#444444"/>
</linearGradient>
<linearGradient id="paint1_linear_0_4" x1="3.53408" y1="6.15729" x2="0.730596" y2="6.97894" gradientUnits="userSpaceOnUse">
<stop stop-color="#433F43" stop-opacity="0"/>
<stop offset="1" stop-color="#1A1A1A"/>
</linearGradient>
<linearGradient id="paint2_linear_0_4" x1="2.58189" y1="4.91059" x2="-0.269962" y2="2.59045" gradientUnits="userSpaceOnUse">
<stop stop-color="#433F43" stop-opacity="0"/>
<stop offset="1" stop-color="#1A1A1A"/>
</linearGradient>
<linearGradient id="paint3_linear_0_4" x1="3.70045" y1="2.79069" x2="3.70045" y2="-0.410096" gradientUnits="userSpaceOnUse">
<stop stop-color="#433F43" stop-opacity="0"/>
<stop offset="1" stop-color="#1A1A1A"/>
</linearGradient>
</defs>
</svg>
