<svg preserveAspectRatio="none" width="100%" height="100%" overflow="visible" style="display: block;" viewBox="0 0 5.96566 5.96534" fill="none" xmlns="http://www.w3.org/2000/svg">
<g id="Group">
<path id="Vector" d="M2.98267 5.96534C4.62996 5.96534 5.96535 4.62996 5.96535 2.98267C5.96535 1.33539 4.62996 0 2.98267 0C1.33539 0 0 1.33539 0 2.98267C0 4.62996 1.33539 5.96534 2.98267 5.96534Z" fill="url(#paint0_linear_0_127)"/>
<path id="Vector_2" d="M0 2.98069C0 4.628 1.33537 5.96336 2.98267 5.96336C4.62998 5.96336 5.96535 4.628 5.96535 2.98069C5.96535 2.62392 5.9025 2.28188 5.78765 1.96482H0.17776C0.0628467 2.28188 0 2.62392 0 2.98069Z" fill="url(#paint1_linear_0_127)"/>
<path id="Vector_3" d="M0.873938 5.09073C2.03871 6.2555 3.92728 6.25557 5.09206 5.09073C6.25683 3.92595 6.25683 2.03739 5.09206 0.87261C4.83981 0.620367 4.55352 0.422951 4.24802 0.279967L0.281229 4.24676C0.424278 4.55219 0.621629 4.83849 0.873938 5.09073Z" fill="url(#paint2_linear_0_127)"/>
</g>
<defs>
<linearGradient id="paint0_linear_0_127" x1="1.43082" y1="1.43082" x2="4.07914" y2="4.07914" gradientUnits="userSpaceOnUse">
<stop stop-color="#FEF0AE"/>
<stop offset="1" stop-color="#FAC600"/>
</linearGradient>
<linearGradient id="paint1_linear_0_127" x1="2.98267" y1="2.49389" x2="2.98267" y2="4.23888" gradientUnits="userSpaceOnUse">
<stop stop-color="#FE9738" stop-opacity="0"/>
<stop offset="1" stop-color="#FE9738"/>
</linearGradient>
<linearGradient id="paint2_linear_0_127" x1="2.78939" y1="2.81469" x2="5.38736" y2="5.05569" gradientUnits="userSpaceOnUse">
<stop stop-color="#FE9738" stop-opacity="0"/>
<stop offset="1" stop-color="#FE9738"/>
</linearGradient>
</defs>
</svg>
